{
.appVersion = "1057";
copyright = "Copyright 2017 Google Inc. All Rights Reserved.";
customParameters = (
{
name = glyphOrder;
value = (
.notdef,
NULL,
CR,
space,
uni00A0,
uni1BC0,
uni1BC1,
uni1BC2,
uni1BC3,
uni1BC4,
uni1BC5,
uni1BC6,
uni1BC7,
uni1BC8,
uni1BC9,
uni1BCA,
uni1BCB,
uni1BCC,
uni1BCD,
uni1BCE,
uni1BCF,
uni1BD0,
uni1BD1,
uni1BD2,
uni1BD3,
uni1BD4,
uni1BD5,
uni1BD6,
uni1BD7,
uni1BD8,
uni1BD9,
uni1BDA,
uni1BDB,
uni1BDC,
uni1BDD,
uni1BDE,
uni1BDF,
uni1BE0,
uni1BE1,
uni1BE2,
uni1BE3,
uni1BE4,
uni1BE5,
uni1BE6,
uni1BE7,
uni1BE8,
uni1BE9,
uni1BEA,
uni1BEB,
uni1BEC,
uni1BED,
uni1BEE,
uni1BEF,
uni1BF0,
uni1BF1,
uni1BF2,
uni1BF3,
uni1BFC,
uni1BFD,
uni1BFE,
uni1BFF,
batak_null,
uni200B,
uni200C,
uni200D,
uni25CC
);
},
{
name = description;
value = "Designed by Monotype design team.";
},
{
name = license;
value = "This Font Software is licensed under the SIL Open Font License, Version 1.1. This Font Software is distributed on an \"AS IS\" BASIS, WITHOUT WARRANTIES OR CONDITIONS OF ANY KIND, either express or implied. See the SIL Open Font License for the specific language, permissions and limitations governing your use of this Font Software.";
},
{
name = licenseURL;
value = "http://scripts.sil.org/OFL";
},
{
name = vendorID;
value = GOOG;
},
{
name = unicodeRanges;
value = (
0,
1,
31,
45
);
},
{
name = trademark;
value = "Noto is a trademark of Google Inc.";
},
{
name = "Has WWS Names";
value = 1;
},
{
name = versionString;
value = "Version 1.900";
},
{
name = fsType;
value = (
);
},
{
name = codePageRanges;
value = (
"1252"
);
},
{
name = "Don't use Production Names";
value = 1;
}
);
date = "2017-04-28 16:57:08 +0000";
designer = "Monotype Design Team";
designerURL = "http://www.monotype.com/studio";
disablesAutomaticAlignment = 1;
disablesNiceNames = 1;
familyName = "Noto Sans Batak";
fontMaster = (
{
alignmentZones = (
"{1069, 15}",
"{714, 15}",
"{536, 15}",
"{0, -15}",
"{-293, -15}"
);
ascender = 1069;
capHeight = 714;
customParameters = (
{

glyphs = (
{
glyphname = .notdef;
lastChange = "2017-09-05 13:40:55 +0000";
layers = (
{
hints = (
{
place = "{62, 63}";
},
{
place = "{375, 62}";
},
{
horizontal = 1;
place = "{0, 62}";
},
{
horizontal = 1;
place = "{737, 63}";
}
);
layerId = UUID0;
paths = (
{
closed = 1;
nodes = (
"438 0 LINE",
"438 800 LINE",
"63 800 LINE",
"63 0 LINE",
"63 0 LINE"
);
},
{
closed = 1;
nodes = (
"125 738 LINE",
"375 738 LINE",
"375 63 LINE",
"125 63 LINE",
"125 63 LINE"
);
}
);
width = 500;
}
);
},
{
glyphname = uni1BC0;
lastChange = "2017-09-05 13:40:55 +0000";
layers = (
{
layerId = UUID0;
paths = (
{
closed = 1;
nodes = (
"691 -15 OFFCURVE",
"789 12 OFFCURVE",
"843 21 CURVE SMOOTH",
"921 34 OFFCURVE",
"998 41 OFFCURVE",
"1073 46 CURVE",
"1059 241 OFFCURVE",
"1015 427 OFFCURVE",
"822 427 CURVE SMOOTH",
"738 427 OFFCURVE",
"685 378 OFFCURVE",
"609 310 CURVE SMOOTH",
"488 201 LINE SMOOTH",
"445 162 OFFCURVE",
"375 107 OFFCURVE",
"309 107 CURVE SMOOTH",
"245 107 OFFCURVE",
"198 169 OFFCURVE",
"134 250 CURVE SMOOTH",
"125 261 OFFCURVE",
"116 266 OFFCURVE",
"106 266 CURVE SMOOTH",
"82 266 OFFCURVE",
"54 244 OFFCURVE",
"54 220 CURVE SMOOTH",
"54 207 OFFCURVE",
"58 199 OFFCURVE",
"62 194 CURVE SMOOTH",
"143 90 OFFCURVE",
"194 20 OFFCURVE",
"312 20 CURVE SMOOTH",
"397 20 OFFCURVE",
"472 63 OFFCURVE",
"536 120 CURVE SMOOTH",
"649 220 LINE SMOOTH",
"689 255 OFFCURVE",
"768 339 OFFCURVE",
"822 339 CURVE SMOOTH",
"918 339 OFFCURVE",
"951 242 OFFCURVE",
"971 125 CURVE",
"896 122 OFFCURVE",
"713 95 OFFCURVE",
"653 73 CURVE SMOOTH",
"632 65 OFFCURVE",
"622 52 OFFCURVE",
"622 34 CURVE SMOOTH",
"622 10 OFFCURVE",
"637 -15 OFFCURVE",
"663 -15 CURVE SMOOTH"
);
}
);
width = 1126;
}
);
unicode = 1BC0;
},
{
glyphname = uni1BC1;
lastChange = "2017-09-05 13:40:55 +0000";
layers = (
{
layerId = UUID0;
paths = (
{
closed = 1;
nodes = (
"397 20 OFFCURVE",
"472 63 OFFCURVE",
"536 120 CURVE SMOOTH",
"649 220 LINE SMOOTH",
"689 255 OFFCURVE",
"768 339 OFFCURVE",
"822 339 CURVE SMOOTH",
"904 339 OFFCURVE",
"940 267 OFFCURVE",
"961 173 CURVE SMOOTH",
"966 152 OFFCURVE",
"975 138 OFFCURVE",
"1012 138 CURVE SMOOTH",
"1044 138 OFFCURVE",
"1056 163 OFFCURVE",
"1056 179 CURVE SMOOTH",
"1056 181 OFFCURVE",
"1056 183 OFFCURVE",
"1056 185 CURVE SMOOTH",
"1029 321 OFFCURVE",
"967 427 OFFCURVE",
"822 427 CURVE SMOOTH",
"738 427 OFFCURVE",
"685 378 OFFCURVE",
"609 310 CURVE",
"488 201 LINE SMOOTH",
"445 162 OFFCURVE",
"375 107 OFFCURVE",
"309 107 CURVE SMOOTH",
"245 107 OFFCURVE",
"198 169 OFFCURVE",
"134 250 CURVE SMOOTH",
"125 261 OFFCURVE",
"116 266 OFFCURVE",
"106 266 CURVE SMOOTH",
"82 266 OFFCURVE",
"54 244 OFFCURVE",
"54 220 CURVE SMOOTH",
"54 207 OFFCURVE",
"58 199 OFFCURVE",
"62 194 CURVE SMOOTH",
"143 90 OFFCURVE",
"194 20 OFFCURVE",
"312 20 CURVE SMOOTH"
);
},
{
closed = 1;
nodes = (
"833 -5 OFFCURVE",
"887 0 OFFCURVE",
"932 0 CURVE SMOOTH",
"970 0 OFFCURVE",
"1030 -5 OFFCURVE",
"1049 -5 CURVE SMOOTH",
"1074 -5 OFFCURVE",
"1090 16 OFFCURVE",
"1090 38 CURVE SMOOTH",
"1090 57 OFFCURVE",
"1079 70 OFFCURVE",
"1056 78 CURVE SMOOTH",
"1041 83 OFFCURVE",
"979 88 OFFCURVE",
"932 88 CURVE SMOOTH",
"877 88 OFFCURVE",
"822 83 OFFCURVE",
"808 78 CURVE SMOOTH",
"784 69 OFFCURVE",
"773 57 OFFCURVE",
"773 38 CURVE SMOOTH",
"773 16 OFFCURVE",
"789 -5 OFFCURVE",
"814 -5 CURVE SMOOTH"
);
}
);
width = 1144;
}
);
unicode = 1BC1;
},
{
glyphname = uni1BC2;
lastChange = "2017-09-05 13:40:55 +0000";
layers = (
{
layerId = UUID0;
paths = (
{
closed = 1;
nodes = (
"283 -15 OFFCURVE",
"290 -8 OFFCURVE",
"297 0 CURVE SMOOTH",
"354 70 OFFCURVE",
"522 391 OFFCURVE",
"777 391 CURVE SMOOTH",
"853 391 OFFCURVE",
"881 364 OFFCURVE",
"881 335 CURVE SMOOTH",
"881 223 OFFCURVE",
"676 85 OFFCURVE",
"676 28 CURVE SMOOTH",
"676 6 OFFCURVE",
"701 -15 OFFCURVE",
"726 -15 CURVE SMOOTH",
"737 -15 OFFCURVE",
"750 -11 OFFCURVE",
"757 0 CURVE SMOOTH",
"830 111 OFFCURVE",
"976 209 OFFCURVE",
"976 350 CURVE SMOOTH",
"976 438 OFFCURVE",
"894 479 OFFCURVE",
"791 479 CURVE SMOOTH",
"698 479 OFFCURVE",
"622 451 OFFCURVE",
"561 414 CURVE",
"478 465 OFFCURVE",
"393 479 OFFCURVE",
"334 479 CURVE SMOOTH",
"269 479 OFFCURVE",
"171 466 OFFCURVE",
"71 397 CURVE SMOOTH",
"56 387 OFFCURVE",
"54 374 OFFCURVE",
"54 364 CURVE SMOOTH",
"54 347 OFFCURVE",
"69 322 OFFCURVE",
"90 322 CURVE SMOOTH",
"94 322 OFFCURVE",
"99 324 OFFCURVE",
"104 326 CURVE SMOOTH",
"203 377 OFFCURVE",
"248 391 OFFCURVE",
"334 391 CURVE SMOOTH",
"398 391 OFFCURVE",
"433 383 OFFCURVE",
"483 357 CURVE",
"416 314 OFFCURVE",
"216 71 OFFCURVE",
"216 30 CURVE SMOOTH",
"216 9 OFFCURVE",
"245 -15 OFFCURVE",
"270 -15 CURVE SMOOTH"
);
}
);
width = 1040;
}
);
unicode = 1BC2;
},
{
glyphname = uni1BC3;
lastChange = "2017-09-05 13:40:55 +0000";
layers = (
{
layerId = UUID0;
paths = (
{
closed = 1;
nodes = (
"99 256 OFFCURVE",
"106 259 OFFCURVE",
"115 262 CURVE SMOOTH",
"302 334 OFFCURVE",
"433 339 OFFCURVE",
"527 339 CURVE SMOOTH",
"668 339 OFFCURVE",
"816 325 OFFCURVE",
"927 285 CURVE SMOOTH",
"935 282 OFFCURVE",
"955 273 OFFCURVE",
"962 273 CURVE SMOOTH",
"987 273 OFFCURVE",
"1002 298 OFFCURVE",
"1002 320 CURVE SMOOTH",
"1002 333 OFFCURVE",
"997 348 OFFCURVE",
"987 354 CURVE SMOOTH",
"880 415 OFFCURVE",
"644 427 OFFCURVE",
"527 427 CURVE SMOOTH",
"430 427 OFFCURVE",
"224 407 OFFCURVE",
"72 334 CURVE SMOOTH",
"58 327 OFFCURVE",
"54 313 OFFCURVE",
"54 301 CURVE SMOOTH",
"54 278 OFFCURVE",
"68 256 OFFCURVE",
"92 256 CURVE SMOOTH"
);
},
{
closed = 1;
nodes = (
"331 -5 OFFCURVE",
"360 0 OFFCURVE",
"405 0 CURVE SMOOTH",
"442 0 OFFCURVE",
"478 -5 OFFCURVE",
"498 -5 CURVE SMOOTH",
"522 -5 OFFCURVE",
"539 16 OFFCURVE",
"539 38 CURVE SMOOTH",
"539 81 OFFCURVE",
"476 88 OFFCURVE",
"405 88 CURVE SMOOTH",
"333 88 OFFCURVE",
"270 82 OFFCURVE",
"270 38 CURVE SMOOTH",
"270 16 OFFCURVE",
"286 -5 OFFCURVE",
"311 -5 CURVE SMOOTH"
);
},
{
closed = 1;
nodes = (
"780 -5 OFFCURVE",
"809 0 OFFCURVE",
"854 0 CURVE SMOOTH",
"892 0 OFFCURVE",
"927 -5 OFFCURVE",
"947 -5 CURVE SMOOTH",
"972 -5 OFFCURVE",
"988 16 OFFCURVE",
"988 38 CURVE SMOOTH",
"988 81 OFFCURVE",
"928 88 OFFCURVE",
"854 88 CURVE SMOOTH",
"782 88 OFFCURVE",
"719 82 OFFCURVE",
"719 38 CURVE SMOOTH",
"719 16 OFFCURVE",
"735 -5 OFFCURVE",
"760 -5 CURVE SMOOTH"
);
}
);
width = 1056;
}
);
unicode = 1BC3;
},
{
glyphname = uni1BC4;
lastChange = "2017-09-05 13:40:55 +0000";
layers = (
{
layerId = UUID0;
paths = (
{
closed = 1;
nodes = (
"727 -15 OFFCURVE",
"746 10 OFFCURVE",
"751 19 CURVE SMOOTH",
"776 61 OFFCURVE",
"856 176 OFFCURVE",
"955 283 CURVE SMOOTH",
"987 318 OFFCURVE",
"994 333 OFFCURVE",
"994 357 CURVE SMOOTH",
"994 380 OFFCURVE",
"969 399 OFFCURVE",
"958 405 CURVE SMOOTH",
"835 474 OFFCURVE",
"644 479 OFFCURVE",
"527 479 CURVE SMOOTH",
"446 479 OFFCURVE",
"244 470 OFFCURVE",
"72 386 CURVE SMOOTH",
"57 379 OFFCURVE",
"54 364 OFFCURVE",
"54 352 CURVE SMOOTH",
"54 330 OFFCURVE",
"68 307 OFFCURVE",
"92 307 CURVE SMOOTH",
"99 307 OFFCURVE",
"106 310 OFFCURVE",
"115 313 CURVE SMOOTH",
"302 385 OFFCURVE",
"415 391 OFFCURVE",
"527 391 CURVE SMOOTH",
"655 391 OFFCURVE",
"773 385 OFFCURVE",
"895 341 CURVE",
"808 262 OFFCURVE",
"701 110 OFFCURVE",
"683 78 CURVE SMOOTH",
"675 64 OFFCURVE",
"662 45 OFFCURVE",
"662 32 CURVE SMOOTH",
"662 11 OFFCURVE",
"686 -15 OFFCURVE",
"711 -15 CURVE SMOOTH"
);
},
{
closed = 1;
nodes = (
"325 -15 OFFCURVE",
"332 -7 OFFCURVE",
"340 5 CURVE SMOOTH",
"390 82 OFFCURVE",
"469 181 OFFCURVE",
"520 233 CURVE SMOOTH",
"528 241 OFFCURVE",
"530 251 OFFCURVE",
"530 260 CURVE SMOOTH",
"530 284 OFFCURVE",
"507 302 OFFCURVE",
"484 302 CURVE SMOOTH",
"471 302 OFFCURVE",
"459 294 OFFCURVE",
"445 280 CURVE SMOOTH",
"377 213 OFFCURVE",
"284 90 OFFCURVE",
"265 53 CURVE SMOOTH",
"261 45 OFFCURVE",
"256 39 OFFCURVE",
"256 28 CURVE SMOOTH",
"256 3 OFFCURVE",
"287 -15 OFFCURVE",
"308 -15 CURVE SMOOTH"
);
}
);
width = 1058;
}
);
unicode = 1BC4;
},
{
glyphname = uni1BC5;
lastChange = "2017-09-05 13:40:55 +0000";
layers = (
{
layerId = UUID0;
paths = (
{
closed = 1;
nodes = (
"292 -10 OFFCURVE",
"338 0 OFFCURVE",
"383 28 CURVE SMOOTH",
"535 122 LINE",
"662 42 LINE SMOOTH",
"693 23 OFFCURVE",
"746 -10 OFFCURVE",
"817 -10 CURVE SMOOTH",
"907 -10 OFFCURVE",
"1001 57 OFFCURVE",
"1001 206 CURVE SMOOTH",
"1001 257 OFFCURVE",
"993 340 OFFCURVE",
"911 390 CURVE SMOOTH",
"795 461 OFFCURVE",
"645 479 OFFCURVE",
"536 479 CURVE SMOOTH",
"425 479 OFFCURVE",
"273 464 OFFCURVE",
"159 390 CURVE SMOOTH",
"101 352 OFFCURVE",
"68 304 OFFCURVE",
"68 194 CURVE SMOOTH",
"68 49 OFFCURVE",
"176 -10 OFFCURVE",
"248 -10 CURVE SMOOTH"
);
},
{
closed = 1;
nodes = (
"177 78 OFFCURVE",
"158 153 OFFCURVE",
"158 209 CURVE SMOOTH",
"158 255 OFFCURVE",
"177 294 OFFCURVE",
"224 321 CURVE SMOOTH",
"321 377 OFFCURVE",
"439 391 OFFCURVE",
"535 391 CURVE SMOOTH",
"632 391 OFFCURVE",
"755 375 OFFCURVE",
"850 320 CURVE SMOOTH",
"892 296 OFFCURVE",
"912 251 OFFCURVE",
"912 209 CURVE SMOOTH",
"912 129 OFFCURVE",
"874 78 OFFCURVE",
"813 78 CURVE SMOOTH",
"801 78 OFFCURVE",
"771 81 OFFCURVE",
"712 119 CURVE SMOOTH",
"602 190 LINE SMOOTH",
"580 204 OFFCURVE",
"553 210 OFFCURVE",
"535 210 CURVE SMOOTH",
"513 210 OFFCURVE",
"483 201 OFFCURVE",
"465 189 CURVE SMOOTH",
"327 101 LINE SMOOTH",
"322 98 OFFCURVE",
"286 78 OFFCURVE",
"257 78 CURVE SMOOTH"
);
}
);
width = 1070;
}
);
unicode = 1BC5;
},
{
glyphname = uni1BC6;
lastChange = "2017-09-05 13:40:55 +0000";
layers = (
{
layerId = UUID0;
paths = (
{
closed = 1;
nodes = (
"725 -10 OFFCURVE",
"922 61 OFFCURVE",
"922 234 CURVE SMOOTH",
"922 409 OFFCURVE",
"719 479 OFFCURVE",
"495 479 CURVE SMOOTH",
"279 479 OFFCURVE",
"68 409 OFFCURVE",
"68 234 CURVE SMOOTH",
"68 64 OFFCURVE",
"254 -10 OFFCURVE",
"495 -10 CURVE SMOOTH"
);
},
{
closed = 1;
nodes = (
"332 78 OFFCURVE",
"163 116 OFFCURVE",
"163 234 CURVE SMOOTH",
"163 353 OFFCURVE",
"335 391 OFFCURVE",
"495 391 CURVE SMOOTH",
"655 391 OFFCURVE",
"827 351 OFFCURVE",
"827 234 CURVE SMOOTH",
"827 120 OFFCURVE",
"664 78 OFFCURVE",
"495 78 CURVE SMOOTH"
);
}
);
width = 990;
}
);
unicode = 1BC6;
},
{
glyphname = uni1BC7;
lastChange = "2017-09-05 13:40:55 +0000";
layers = (
{
layerId = UUID0;
paths = (
{
closed = 1;
nodes = (
"120 313 OFFCURVE",
"220 339 OFFCURVE",
"420 339 CURVE SMOOTH",
"652 339 OFFCURVE",
"726 325 OFFCURVE",
"745 325 CURVE SMOOTH",
"770 325 OFFCURVE",
"786 346 OFFCURVE",
"786 369 CURVE SMOOTH",
"786 388 OFFCURVE",
"776 406 OFFCURVE",
"751 410 CURVE SMOOTH",
"705 417 OFFCURVE",
"617 427 OFFCURVE",
"420 427 CURVE SMOOTH",
"234 427 OFFCURVE",
"117 405 OFFCURVE",
"88 398 CURVE SMOOTH",
"65 392 OFFCURVE",
"54 376 OFFCURVE",
"54 357 CURVE SMOOTH",
"54 334 OFFCURVE",
"70 313 OFFCURVE",
"95 313 CURVE SMOOTH"
);
}
);
width = 840;
}
);
unicode = 1BC7;
},
{
glyphname = uni1BC8;
lastChange = "2017-09-05 13:40:55 +0000";
layers = (
{
layerId = UUID0;
paths = (
{
closed = 1;
nodes = (
"438 122 OFFCURVE",
"533 232 OFFCURVE",
"667 232 CURVE SMOOTH",
"730 232 OFFCURVE",
"772 204 OFFCURVE",
"809 153 CURVE SMOOTH",
"817 142 OFFCURVE",
"827 137 OFFCURVE",
"836 137 CURVE SMOOTH",
"861 137 OFFCURVE",
"889 159 OFFCURVE",
"889 183 CURVE SMOOTH",
"889 196 OFFCURVE",
"885 204 OFFCURVE",
"881 209 CURVE SMOOTH",
"841 261 OFFCURVE",
"781 320 OFFCURVE",
"664 320 CURVE SMOOTH",
"505 320 OFFCURVE",
"409 210 OFFCURVE",
"276 210 CURVE SMOOTH",
"212 210 OFFCURVE",
"171 238 OFFCURVE",
"134 289 CURVE SMOOTH",
"126 300 OFFCURVE",
"116 305 OFFCURVE",
"106 305 CURVE SMOOTH",
"82 305 OFFCURVE",
"54 283 OFFCURVE",
"54 259 CURVE SMOOTH",
"54 246 OFFCURVE",
"58 238 OFFCURVE",
"62 233 CURVE SMOOTH",
"102 181 OFFCURVE",
"162 122 OFFCURVE",
"279 122 CURVE SMOOTH"
);
}
);
width = 943;
}
);
unicode = 1BC8;
},
{
glyphname = uni1BC9;
lastChange = "2017-09-05 13:40:55 +0000";
layers = (
{
layerId = UUID0;
paths = (
{
closed = 1;
nodes = (
"760 -10 OFFCURVE",
"921 46 OFFCURVE",
"921 185 CURVE SMOOTH",
"921 323 OFFCURVE",
"755 381 OFFCURVE",
"577 381 CURVE SMOOTH",
"405 381 OFFCURVE",
"233 323 OFFCURVE",
"233 185 CURVE SMOOTH",
"233 49 OFFCURVE",
"385 -10 OFFCURVE",
"577 -10 CURVE SMOOTH"
);
},
{
closed = 1;
nodes = (
"451 78 OFFCURVE",
"328 104 OFFCURVE",
"328 185 CURVE SMOOTH",
"328 266 OFFCURVE",
"454 293 OFFCURVE",
"579 293 CURVE SMOOTH",
"705 293 OFFCURVE",
"827 265 OFFCURVE",
"827 185 CURVE SMOOTH",
"827 106 OFFCURVE",
"710 78 OFFCURVE",
"579 78 CURVE SMOOTH"
);
},
{
closed = 1;
nodes = (
"116 445 OFFCURVE",
"188 464 OFFCURVE",
"386 464 CURVE SMOOTH",
"593 464 OFFCURVE",
"655 445 OFFCURVE",
"680 445 CURVE SMOOTH",
"703 445 OFFCURVE",
"717 470 OFFCURVE",
"717 492 CURVE SMOOTH",
"717 507 OFFCURVE",
"708 524 OFFCURVE",
"683 529 CURVE SMOOTH",
"609 544 OFFCURVE",
"472 552 OFFCURVE",
"386 552 CURVE SMOOTH",
"296 552 OFFCURVE",
"164 545 OFFCURVE",
"80 528 CURVE SMOOTH",
"61 524 OFFCURVE",
"54 502 OFFCURVE",
"54 489 CURVE SMOOTH",
"54 466 OFFCURVE",
"70 445 OFFCURVE",
"88 445 CURVE SMOOTH"
);
}
);
width = 990;
}
);
unicode = 1BC9;
},
{
glyphname = uni1BCA;
lastChange = "2017-09-05 13:40:55 +0000";
layers = (
{
layerId = UUID0;
paths = (
{
closed = 1;
nodes = (
"661 -10 OFFCURVE",
"691 56 OFFCURVE",
"691 133 CURVE SMOOTH",
"691 207 OFFCURVE",
"630 273 OFFCURVE",
"537 328 CURVE",
"638 366 OFFCURVE",
"757 391 OFFCURVE",
"870 391 CURVE SMOOTH",
"893 391 OFFCURVE",
"902 414 OFFCURVE",
"902 435 CURVE SMOOTH",
"902 458 OFFCURVE",
"891 479 OFFCURVE",
"865 479 CURVE SMOOTH",
"737 479 OFFCURVE",
"578 437 OFFCURVE",
"447 375 CURVE",
"366 415 OFFCURVE",
"272 441 OFFCURVE",
"177 463 CURVE SMOOTH",
"174 464 OFFCURVE",
"165 466 OFFCURVE",
"159 466 CURVE SMOOTH",
"137 466 OFFCURVE",
"122 443 OFFCURVE",
"122 421 CURVE SMOOTH",
"122 402 OFFCURVE",
"136 385 OFFCURVE",
"160 380 CURVE SMOOTH",
"223 368 OFFCURVE",
"294 349 OFFCURVE",
"355 327 CURVE",
"263 270 OFFCURVE",
"201 202 OFFCURVE",
"201 133 CURVE SMOOTH",
"201 57 OFFCURVE",
"231 -10 OFFCURVE",
"441 -10 CURVE SMOOTH"
);
},
{
closed = 1;
nodes = (
"372 78 OFFCURVE",
"295 84 OFFCURVE",
"295 133 CURVE SMOOTH",
"295 184 OFFCURVE",
"355 241 OFFCURVE",
"445 288 CURVE",
"533 241 OFFCURVE",
"597 184 OFFCURVE",
"597 133 CURVE SMOOTH",
"597 84 OFFCURVE",
"496 78 OFFCURVE",
"447 78 CURVE SMOOTH"
);
},
{
closed = 1;
nodes = (
"89 552 OFFCURVE",
"98 552 OFFCURVE",
"106 553 CURVE SMOOTH",
"155 562 OFFCURVE",
"274 567 OFFCURVE",
"337 567 CURVE SMOOTH",
"375 567 OFFCURVE",
"491 562 OFFCURVE",
"551 559 CURVE SMOOTH",
"553 559 OFFCURVE",
"578 556 OFFCURVE",
"583 556 CURVE SMOOTH",
"605 556 OFFCURVE",
"620 581 OFFCURVE",
"620 603 CURVE SMOOTH",
"620 618 OFFCURVE",
"610 635 OFFCURVE",
"585 640 CURVE SMOOTH",
"511 654 OFFCURVE",
"375 655 OFFCURVE",
"337 655 CURVE SMOOTH",
"306 655 OFFCURVE",
"164 651 OFFCURVE",
"80 635 CURVE SMOOTH",
"61 631 OFFCURVE",
"54 609 OFFCURVE",
"54 595 CURVE SMOOTH",
"54 572 OFFCURVE",
"70 552 OFFCURVE",
"88 552 CURVE SMOOTH"
);
}
);
width = 956;
}
);
unicode = 1BCA;
},
{
glyphname = uni1BCB;
lastChange = "2017-09-05 13:40:55 +0000";
layers = (
{
layerId = UUID0;
paths = (
{
closed = 1;
nodes = (
"343 -10 OFFCURVE",
"364 -3 OFFCURVE",
"364 38 CURVE SMOOTH",
"364 65 OFFCURVE",
"343 78 OFFCURVE",
"303 78 CURVE SMOOTH",
"190 78 OFFCURVE",
"163 102 OFFCURVE",
"163 151 CURVE SMOOTH",
"163 270 OFFCURVE",
"292 391 OFFCURVE",
"500 391 CURVE SMOOTH",
"709 391 OFFCURVE",
"837 268 OFFCURVE",
"837 151 CURVE SMOOTH",
"837 102 OFFCURVE",
"810 78 OFFCURVE",
"697 78 CURVE SMOOTH",
"657 78 OFFCURVE",
"636 65 OFFCURVE",
"636 38 CURVE SMOOTH",
"636 -3 OFFCURVE",
"657 -10 OFFCURVE",
"695 -10 CURVE SMOOTH",
"864 -10 OFFCURVE",
"932 32 OFFCURVE",
"932 151 CURVE SMOOTH",
"932 326 OFFCURVE",
"772 479 OFFCURVE",
"500 479 CURVE SMOOTH",
"235 479 OFFCURVE",
"68 326 OFFCURVE",
"68 151 CURVE SMOOTH",
"68 33 OFFCURVE",
"135 -10 OFFCURVE",
"305 -10 CURVE SMOOTH"
);
}
);
width = 1000;
}
);
unicode = 1BCB;
},
{
glyphname = uni1BCC;
lastChange = "2017-09-05 13:40:55 +0000";
layers = (
{
layerId = UUID0;
paths = (
{
closed = 1;
nodes = (
"99 256 OFFCURVE",
"106 259 OFFCURVE",
"115 262 CURVE SMOOTH",
"302 334 OFFCURVE",
"433 339 OFFCURVE",
"527 339 CURVE SMOOTH",
"668 339 OFFCURVE",
"816 325 OFFCURVE",
"927 285 CURVE SMOOTH",
"935 282 OFFCURVE",
"955 273 OFFCURVE",
"962 273 CURVE SMOOTH",
"987 273 OFFCURVE",
"1002 298 OFFCURVE",
"1002 320 CURVE SMOOTH",
"1002 333 OFFCURVE",
"997 348 OFFCURVE",
"987 354 CURVE SMOOTH",
"880 415 OFFCURVE",
"644 427 OFFCURVE",
"527 427 CURVE SMOOTH",
"430 427 OFFCURVE",
"224 407 OFFCURVE",
"72 334 CURVE SMOOTH",
"58 327 OFFCURVE",
"54 313 OFFCURVE",
"54 301 CURVE SMOOTH",
"54 278 OFFCURVE",
"68 256 OFFCURVE",
"92 256 CURVE SMOOTH"
);
},
{
closed = 1;
nodes = (
"138 -5 OFFCURVE",
"167 0 OFFCURVE",
"212 0 CURVE SMOOTH",
"250 0 OFFCURVE",
"286 -5 OFFCURVE",
"305 -5 CURVE SMOOTH",
"330 -5 OFFCURVE",
"346 16 OFFCURVE",
"346 38 CURVE SMOOTH",
"346 82 OFFCURVE",
"286 88 OFFCURVE",
"212 88 CURVE SMOOTH",
"143 88 OFFCURVE",
"78 83 OFFCURVE",
"78 38 CURVE SMOOTH",
"78 16 OFFCURVE",
"94 -5 OFFCURVE",
"119 -5 CURVE SMOOTH"
);
},
{
closed = 1;
nodes = (
"790 -5 OFFCURVE",
"819 0 OFFCURVE",
"864 0 CURVE SMOOTH",
"901 0 OFFCURVE",
"937 -5 OFFCURVE",
"957 -5 CURVE SMOOTH",
"981 -5 OFFCURVE",
"998 16 OFFCURVE",
"998 38 CURVE SMOOTH",
"998 81 OFFCURVE",
"935 88 OFFCURVE",
"864 88 CURVE SMOOTH",
"792 88 OFFCURVE",
"729 82 OFFCURVE",
"729 38 CURVE SMOOTH",
"729 16 OFFCURVE",
"745 -5 OFFCURVE",
"770 -5 CURVE SMOOTH"
);
}
);
width = 1056;
}
);
unicode = 1BCC;
},
{
glyphname = uni1BCD;
lastChange = "2017-09-05 13:40:55 +0000";
layers = (
{
layerId = UUID0;
paths = (
{
closed = 1;
nodes = (
"718 -15 OFFCURVE",
"734 5 OFFCURVE",
"734 23 CURVE SMOOTH",
"734 53 OFFCURVE",
"711 114 OFFCURVE",
"663 145 CURVE SMOOTH",
"608 181 OFFCURVE",
"540 192 OFFCURVE",
"421 208 CURVE SMOOTH",
"340 219 OFFCURVE",
"261 233 OFFCURVE",
"209 281 CURVE SMOOTH",
"182 306 OFFCURVE",
"163 338 OFFCURVE",
"156 383 CURVE",
"203 388 OFFCURVE",
"264 391 OFFCURVE",
"361 391 CURVE SMOOTH",
"404 391 OFFCURVE",
"482 388 OFFCURVE",
"515 384 CURVE",
"493 366 LINE SMOOTH",
"483 357 OFFCURVE",
"477 346 OFFCURVE",
"477 333 CURVE SMOOTH",
"477 309 OFFCURVE",
"498 291 OFFCURVE",
"519 291 CURVE SMOOTH",
"530 291 OFFCURVE",
"542 294 OFFCURVE",
"554 305 CURVE SMOOTH",
"601 349 LINE SMOOTH",
"614 362 OFFCURVE",
"632 380 OFFCURVE",
"632 405 CURVE SMOOTH",
"632 471 OFFCURVE",
"547 479 OFFCURVE",
"356 479 CURVE SMOOTH",
"260 479 OFFCURVE",
"132 471 OFFCURVE",
"108 468 CURVE SMOOTH",
"75 464 OFFCURVE",
"63 441 OFFCURVE",
"63 425 CURVE SMOOTH",
"63 325 OFFCURVE",
"95 262 OFFCURVE",
"143 221 CURVE SMOOTH",
"213 162 OFFCURVE",
"315 146 OFFCURVE",
"410 131 CURVE SMOOTH",
"479 120 OFFCURVE",
"544 110 OFFCURVE",
"588 84 CURVE SMOOTH",
"613 69 OFFCURVE",
"630 49 OFFCURVE",
"639 20 CURVE SMOOTH",
"645 0 OFFCURVE",
"652 -15 OFFCURVE",
"689 -15 CURVE SMOOTH"
);
}
);
width = 788;
}
);
unicode = 1BCD;
},
{
glyphname = uni1BCE;
lastChange = "2017-09-05 13:40:55 +0000";
layers = (
{
layerId = UUID0;
paths = (
{
closed = 1;
nodes = (
"658 114 OFFCURVE",
"672 116 OFFCURVE",
"682 129 CURVE SMOOTH",
"733 197 OFFCURVE",
"799 251 OFFCURVE",
"854 291 CURVE SMOOTH",
"868 301 OFFCURVE",
"877 313 OFFCURVE",
"877 338 CURVE SMOOTH",
"877 357 OFFCURVE",
"868 371 OFFCURVE",
"845 383 CURVE SMOOTH",
"766 424 OFFCURVE",
"552 427 OFFCURVE",
"465 427 CURVE SMOOTH",
"372 427 OFFCURVE",
"190 409 OFFCURVE",
"82 365 CURVE SMOOTH",
"62 357 OFFCURVE",
"54 339 OFFCURVE",
"54 326 CURVE SMOOTH",
"54 304 OFFCURVE",
"70 281 OFFCURVE",
"95 281 CURVE SMOOTH",
"106 281 OFFCURVE",
"136 290 OFFCURVE",
"144 293 CURVE SMOOTH",
"199 313 OFFCURVE",
"350 339 OFFCURVE",
"465 339 CURVE SMOOTH",
"555 339 OFFCURVE",
"686 337 OFFCURVE",
"754 318 CURVE",
"697 275 OFFCURVE",
"651 235 OFFCURVE",
"617 194 CURVE SMOOTH",
"609 185 OFFCURVE",
"602 169 OFFCURVE",
"602 157 CURVE SMOOTH",
"602 133 OFFCURVE",
"626 114 OFFCURVE",
"647 114 CURVE SMOOTH"
);
}
);
width = 941;
}
);
unicode = 1BCE;
},
{
glyphname = uni1BCF;
lastChange = "2017-09-05 13:40:55 +0000";
layers = (
{
layerId = UUID0;
paths = (
{
closed = 1;
nodes = (
"99 256 OFFCURVE",
"106 259 OFFCURVE",
"115 262 CURVE SMOOTH",
"302 334 OFFCURVE",
"433 339 OFFCURVE",
"527 339 CURVE SMOOTH",
"668 339 OFFCURVE",
"816 325 OFFCURVE",
"927 285 CURVE SMOOTH",
"935 282 OFFCURVE",
"955 273 OFFCURVE",
"962 273 CURVE SMOOTH",
"987 273 OFFCURVE",
"1002 298 OFFCURVE",
"1002 320 CURVE SMOOTH",
"1002 333 OFFCURVE",
"997 348 OFFCURVE",
"987 354 CURVE SMOOTH",
"880 415 OFFCURVE",
"644 427 OFFCURVE",
"527 427 CURVE SMOOTH",
"430 427 OFFCURVE",
"224 407 OFFCURVE",
"72 334 CURVE SMOOTH",
"58 327 OFFCURVE",
"54 313 OFFCURVE",
"54 301 CURVE SMOOTH",
"54 278 OFFCURVE",
"68 256 OFFCURVE",
"92 256 CURVE SMOOTH"
);
},
{
closed = 1;
nodes = (
"780 -5 OFFCURVE",
"809 0 OFFCURVE",
"854 0 CURVE SMOOTH",
"892 0 OFFCURVE",
"927 -5 OFFCURVE",
"947 -5 CURVE SMOOTH",
"972 -5 OFFCURVE",
"988 16 OFFCURVE",
"988 38 CURVE SMOOTH",
"988 81 OFFCURVE",
"928 88 OFFCURVE",
"854 88 CURVE SMOOTH",
"782 88 OFFCURVE",
"719 82 OFFCURVE",
"719 38 CURVE SMOOTH",
"719 16 OFFCURVE",
"735 -5 OFFCURVE",
"760 -5 CURVE SMOOTH"
);
}
);
width = 1056;
}
);
unicode = 1BCF;
},
{
glyphname = uni1BD0;
lastChange = "2017-09-05 13:40:55 +0000";
layers = (
{
layerId = UUID0;
paths = (
{
closed = 1;
nodes = (
"134 253 OFFCURVE",
"184 292 OFFCURVE",
"412 345 CURVE SMOOTH",
"543 375 OFFCURVE",
"674 391 OFFCURVE",
"699 394 CURVE SMOOTH",
"719 396 OFFCURVE",
"730 417 OFFCURVE",
"730 435 CURVE SMOOTH",
"730 459 OFFCURVE",
"712 479 OFFCURVE",
"689 479 CURVE SMOOTH",
"631 479 OFFCURVE",
"497 457 OFFCURVE",
"366 426 CURVE SMOOTH",
"253 399 OFFCURVE",
"144 367 OFFCURVE",
"89 335 CURVE SMOOTH",
"72 325 OFFCURVE",
"63 313 OFFCURVE",
"63 297 CURVE SMOOTH",
"63 274 OFFCURVE",
"82 253 OFFCURVE",
"105 253 CURVE SMOOTH"
);
},
{
closed = 1;
nodes = (
"724 -10 OFFCURVE",
"747 7 OFFCURVE",
"747 30 CURVE SMOOTH",
"747 43 OFFCURVE",
"743 62 OFFCURVE",
"722 77 CURVE SMOOTH",
"676 111 OFFCURVE",
"571 152 OFFCURVE",
"531 170 CURVE SMOOTH",
"476 195 OFFCURVE",
"353 243 OFFCURVE",
"317 243 CURVE SMOOTH",
"294 243 OFFCURVE",
"276 221 OFFCURVE",
"276 198 CURVE SMOOTH",
"276 183 OFFCURVE",
"287 167 OFFCURVE",
"309 158 CURVE SMOOTH",
"342 145 OFFCURVE",
"428 114 OFFCURVE",
"490 88 CURVE SMOOTH",
"628 30 OFFCURVE",
"674 -10 OFFCURVE",
"701 -10 CURVE SMOOTH"
);
},
{
closed = 1;
nodes = (
"640 216 OFFCURVE",
"676 225 OFFCURVE",
"770 225 CURVE SMOOTH",
"856 225 OFFCURVE",
"899 216 OFFCURVE",
"919 216 CURVE SMOOTH",
"944 216 OFFCURVE",
"960 237 OFFCURVE",
"960 259 CURVE SMOOTH",
"960 278 OFFCURVE",
"950 294 OFFCURVE",
"925 300 CURVE SMOOTH",
"889 308 OFFCURVE",
"835 313 OFFCURVE",
"770 313 CURVE SMOOTH",
"708 313 OFFCURVE",
"643 307 OFFCURVE",
"614 300 CURVE SMOOTH",
"590 294 OFFCURVE",
"579 278 OFFCURVE",
"579 259 CURVE SMOOTH",
"579 237 OFFCURVE",
"595 216 OFFCURVE",
"620 216 CURVE SMOOTH"
);
}
);
width = 1023;
}
);
unicode = 1BD0;
},
{
glyphname = uni1BD1;
lastChange = "2017-09-05 13:40:55 +0000";
layers = (
{
layerId = UUID0;
paths = (
{
closed = 1;
nodes = (
"134 253 OFFCURVE",
"184 292 OFFCURVE",
"412 345 CURVE SMOOTH",
"543 375 OFFCURVE",
"674 391 OFFCURVE",
"699 394 CURVE SMOOTH",
"719 396 OFFCURVE",
"730 417 OFFCURVE",
"730 435 CURVE SMOOTH",
"730 459 OFFCURVE",
"712 479 OFFCURVE",
"689 479 CURVE SMOOTH",
"631 479 OFFCURVE",
"497 457 OFFCURVE",
"366 426 CURVE SMOOTH",
"253 399 OFFCURVE",
"144 367 OFFCURVE",
"89 335 CURVE SMOOTH",
"72 325 OFFCURVE",
"63 313 OFFCURVE",
"63 297 CURVE SMOOTH",
"63 274 OFFCURVE",
"82 253 OFFCURVE",
"105 253 CURVE SMOOTH"
);
},
{
closed = 1;
nodes = (
"724 -10 OFFCURVE",
"747 7 OFFCURVE",
"747 30 CURVE SMOOTH",
"747 43 OFFCURVE",
"743 62 OFFCURVE",
"722 77 CURVE SMOOTH",
"676 111 OFFCURVE",
"571 152 OFFCURVE",
"531 170 CURVE SMOOTH",
"476 195 OFFCURVE",
"353 243 OFFCURVE",
"317 243 CURVE SMOOTH",
"294 243 OFFCURVE",
"276 221 OFFCURVE",
"276 198 CURVE SMOOTH",
"276 183 OFFCURVE",
"286 166 OFFCURVE",
"309 158 CURVE SMOOTH",
"342 146 OFFCURVE",
"428 114 OFFCURVE",
"490 88 CURVE SMOOTH",
"628 30 OFFCURVE",
"674 -10 OFFCURVE",
"701 -10 CURVE SMOOTH"
);
}
);
width = 811;
}
);
unicode = 1BD1;
},
{
glyphname = uni1BD2;
lastChange = "2017-09-05 13:40:55 +0000";
layers = (
{
layerId = UUID0;
paths = (
{
closed = 1;
nodes = (
"668 -15 OFFCURVE",
"682 -13 OFFCURVE",
"692 0 CURVE SMOOTH",
"743 68 OFFCURVE",
"809 123 OFFCURVE",
"864 162 CURVE SMOOTH",
"879 172 OFFCURVE",
"887 184 OFFCURVE",
"887 209 CURVE SMOOTH",
"887 228 OFFCURVE",
"877 242 OFFCURVE",
"854 254 CURVE SMOOTH",
"775 295 OFFCURVE",
"562 298 OFFCURVE",
"475 298 CURVE SMOOTH",
"381 298 OFFCURVE",
"200 280 OFFCURVE",
"91 236 CURVE SMOOTH",
"72 228 OFFCURVE",
"63 210 OFFCURVE",
"63 197 CURVE SMOOTH",
"63 175 OFFCURVE",
"80 152 OFFCURVE",
"104 152 CURVE SMOOTH",
"116 152 OFFCURVE",
"146 162 OFFCURVE",
"153 164 CURVE SMOOTH",
"209 184 OFFCURVE",
"360 210 OFFCURVE",
"475 210 CURVE SMOOTH",
"565 210 OFFCURVE",
"696 208 OFFCURVE",
"764 189 CURVE",
"707 146 OFFCURVE",
"661 106 OFFCURVE",
"627 65 CURVE SMOOTH",
"619 56 OFFCURVE",
"612 41 OFFCURVE",
"612 28 CURVE SMOOTH",
"612 4 OFFCURVE",
"636 -15 OFFCURVE",
"657 -15 CURVE SMOOTH"
);
},
{
closed = 1;
nodes = (
"116 339 OFFCURVE",
"146 349 OFFCURVE",
"153 352 CURVE SMOOTH",
"209 372 OFFCURVE",
"360 391 OFFCURVE",
"475 391 CURVE SMOOTH",
"583 391 OFFCURVE",
"749 380 OFFCURVE",
"797 367 CURVE SMOOTH",
"805 365 OFFCURVE",
"827 357 OFFCURVE",
"848 357 CURVE SMOOTH",
"873 357 OFFCURVE",
"889 380 OFFCURVE",
"889 403 CURVE SMOOTH",
"889 422 OFFCURVE",
"879 435 OFFCURVE",
"854 444 CURVE SMOOTH",
"767 475 OFFCURVE",
"562 479 OFFCURVE",
"475 479 CURVE SMOOTH",
"381 479 OFFCURVE",
"192 465 OFFCURVE",
"91 423 CURVE SMOOTH",
"72 415 OFFCURVE",
"63 397 OFFCURVE",
"63 385 CURVE SMOOTH",
"63 362 OFFCURVE",
"80 339 OFFCURVE",
"104 339 CURVE SMOOTH"
);
}
);
width = 953;
}
);
unicode = 1BD2;
},
{
glyphname = uni1BD3;
lastChange = "2017-09-05 13:40:55 +0000";
layers = (
{
layerId = UUID0;
paths = (
{
closed = 1;
nodes = (
"261 161 OFFCURVE",
"473 173 OFFCURVE",
"567 173 CURVE SMOOTH",
"653 173 OFFCURVE",
"872 161 OFFCURVE",
"892 161 CURVE SMOOTH",
"917 161 OFFCURVE",
"933 182 OFFCURVE",
"933 205 CURVE SMOOTH",
"933 224 OFFCURVE",
"923 242 OFFCURVE",
"898 246 CURVE SMOOTH",
"851 253 OFFCURVE",
"653 261 OFFCURVE",
"567 261 CURVE SMOOTH",
"473 261 OFFCURVE",
"264 253 OFFCURVE",
"235 246 CURVE SMOOTH",
"211 240 OFFCURVE",
"200 224 OFFCURVE",
"200 205 CURVE SMOOTH",
"200 182 OFFCURVE",
"216 161 OFFCURVE",
"241 161 CURVE SMOOTH"
);
},
{
closed = 1;
nodes = (
"114 331 OFFCURVE",
"229 339 OFFCURVE",
"323 339 CURVE SMOOTH",
"409 339 OFFCURVE",
"530 331 OFFCURVE",
"550 331 CURVE SMOOTH",
"575 331 OFFCURVE",
"591 352 OFFCURVE",
"591 374 CURVE SMOOTH",
"591 393 OFFCURVE",
"581 411 OFFCURVE",
"556 415 CURVE SMOOTH",
"509 422 OFFCURVE",
"409 427 OFFCURVE",
"323 427 CURVE SMOOTH",
"229 427 OFFCURVE",
"117 422 OFFCURVE",
"88 415 CURVE SMOOTH",
"64 409 OFFCURVE",
"54 393 OFFCURVE",
"54 374 CURVE SMOOTH",
"54 352 OFFCURVE",
"70 331 OFFCURVE",
"95 331 CURVE SMOOTH"
);
},
{
closed = 1;
nodes = (
"725 -5 OFFCURVE",
"754 0 OFFCURVE",
"799 0 CURVE SMOOTH",
"836 0 OFFCURVE",
"872 -5 OFFCURVE",
"892 -5 CURVE SMOOTH",
"917 -5 OFFCURVE",
"933 16 OFFCURVE",
"933 38 CURVE SMOOTH",
"933 81 OFFCURVE",
"870 88 OFFCURVE",
"799 88 CURVE SMOOTH",
"727 88 OFFCURVE",
"664 82 OFFCURVE",
"664 38 CURVE SMOOTH",
"664 16 OFFCURVE",
"680 -5 OFFCURVE",
"705 -5 CURVE SMOOTH"
);
}
);
width = 986;
}
);
unicode = 1BD3;
},
{
glyphname = uni1BD4;
lastChange = "2017-09-05 13:40:55 +0000";
layers = (
{
layerId = UUID0;
paths = (
{
closed = 1;
nodes = (
"502 -10 OFFCURVE",
"567 56 OFFCURVE",
"622 126 CURVE SMOOTH",
"674 193 LINE SMOOTH",
"752 295 OFFCURVE",
"827 330 OFFCURVE",
"932 339 CURVE SMOOTH",
"981 343 OFFCURVE",
"990 367 OFFCURVE",
"990 391 CURVE SMOOTH",
"990 410 OFFCURVE",
"974 427 OFFCURVE",
"933 427 CURVE SMOOTH",
"811 427 OFFCURVE",
"688 362 OFFCURVE",
"593 234 CURVE SMOOTH",
"542 166 LINE SMOOTH",
"499 108 OFFCURVE",
"452 78 OFFCURVE",
"404 78 CURVE SMOOTH",
"333 78 OFFCURVE",
"259 148 OFFCURVE",
"259 358 CURVE",
"211 384 LINE",
"182 384 OFFCURVE",
"169 363 OFFCURVE",
"169 344 CURVE SMOOTH",
"169 104 OFFCURVE",
"278 -10 OFFCURVE",
"402 -10 CURVE SMOOTH"
);
},
{
closed = 1;
nodes = (
"75 324 OFFCURVE",
"83 324 OFFCURVE",
"91 325 CURVE SMOOTH",
"141 334 OFFCURVE",
"260 339 OFFCURVE",
"323 339 CURVE SMOOTH",
"360 339 OFFCURVE",
"452 333 OFFCURVE",
"512 331 CURVE SMOOTH",
"514 331 OFFCURVE",
"541 328 OFFCURVE",
"543 328 CURVE SMOOTH",
"566 328 OFFCURVE",
"581 353 OFFCURVE",
"581 375 CURVE SMOOTH",
"581 390 OFFCURVE",
"571 407 OFFCURVE",
"546 412 CURVE SMOOTH",
"472 426 OFFCURVE",
"360 427 OFFCURVE",
"323 427 CURVE SMOOTH",
"291 427 OFFCURVE",
"149 423 OFFCURVE",
"65 407 CURVE SMOOTH",
"46 403 OFFCURVE",
"39 381 OFFCURVE",
"39 367 CURVE SMOOTH",
"39 344 OFFCURVE",
"55 324 OFFCURVE",
"73 324 CURVE SMOOTH"
);
},
{
closed = 1;
nodes = (
"965 -24 OFFCURVE",
"990 -11 OFFCURVE",
"990 20 CURVE SMOOTH",
"990 58 OFFCURVE",
"963 57 OFFCURVE",
"938 61 CURVE SMOOTH",
"881 70 OFFCURVE",
"695 100 OFFCURVE",
"560 158 CURVE",
"487 92 LINE",
"566 49 OFFCURVE",
"800 -24 OFFCURVE",
"939 -24 CURVE SMOOTH"
);
}
);
width = 1054;
}
);
unicode = 1BD4;
},
{
glyphname = uni1BD5;
lastChange = "2017-09-05 13:40:55 +0000";
layers = (
{
layerId = UUID0;
paths = (
{
closed = 1;
nodes = (
"441 128 OFFCURVE",
"459 140 OFFCURVE",
"472 149 CURVE SMOOTH",
"559 206 OFFCURVE",
"628 251 OFFCURVE",
"693 286 CURVE SMOOTH",
"800 343 OFFCURVE",
"896 377 OFFCURVE",
"969 396 CURVE SMOOTH",
"1005 405 OFFCURVE",
"1021 411 OFFCURVE",
"1021 445 CURVE SMOOTH",
"1021 459 OFFCURVE",
"1016 479 OFFCURVE",
"986 479 CURVE SMOOTH",
"910 479 OFFCURVE",
"774 427 OFFCURVE",
"649 362 CURVE SMOOTH",
"532 301 OFFCURVE",
"424 226 OFFCURVE",
"398 202 CURVE SMOOTH",
"389 193 OFFCURVE",
"383 181 OFFCURVE",
"383 171 CURVE SMOOTH",
"383 147 OFFCURVE",
"396 128 OFFCURVE",
"418 128 CURVE SMOOTH"
);
},
{
closed = 1;
nodes = (
"112 303 OFFCURVE",
"127 310 OFFCURVE",
"140 318 CURVE SMOOTH",
"167 335 OFFCURVE",
"255 391 OFFCURVE",
"401 391 CURVE SMOOTH",
"500 391 OFFCURVE",
"543 383 OFFCURVE",
"557 383 CURVE SMOOTH",
"580 383 OFFCURVE",
"592 407 OFFCURVE",
"592 436 CURVE SMOOTH",
"592 478 OFFCURVE",
"500 479 OFFCURVE",
"401 479 CURVE SMOOTH",
"284 479 OFFCURVE",
"150 436 OFFCURVE",
"99 393 CURVE SMOOTH",
"77 375 OFFCURVE",
"63 361 OFFCURVE",
"63 345 CURVE SMOOTH",
"63 316 OFFCURVE",
"81 303 OFFCURVE",
"100 303 CURVE"
);
},
{
closed = 1;
nodes = (
"1002 -10 OFFCURVE",
"1025 12 OFFCURVE",
"1025 36 CURVE SMOOTH",
"1025 57 OFFCURVE",
"1008 67 OFFCURVE",
"996 75 CURVE SMOOTH",
"955 102 OFFCURVE",
"927 115 OFFCURVE",
"862 144 CURVE SMOOTH",
"807 169 OFFCURVE",
"709 209 OFFCURVE",
"679 209 CURVE SMOOTH",
"657 209 OFFCURVE",
"638 187 OFFCURVE",
"638 164 CURVE SMOOTH",
"638 148 OFFCURVE",
"646 131 OFFCURVE",
"669 121 CURVE SMOOTH",
"711 103 OFFCURVE",
"756 92 OFFCURVE",
"818 64 CURVE SMOOTH",
"880 36 OFFCURVE",
"913 20 OFFCURVE",
"944 -2 CURVE SMOOTH",
"952 -7 OFFCURVE",
"969 -10 OFFCURVE",
"979 -10 CURVE SMOOTH"
);
}
);
width = 1088;
}
);
unicode = 1BD5;
},
{
glyphname = uni1BD6;
lastChange = "2017-09-05 13:40:55 +0000";
layers = (
{
layerId = UUID0;
paths = (
{
closed = 1;
nodes = (
"127 -15 OFFCURVE",
"143 -6 OFFCURVE",
"152 1 CURVE SMOOTH",
"315 124 OFFCURVE",
"553 256 OFFCURVE",
"692 327 CURVE SMOOTH",
"713 338 OFFCURVE",
"729 349 OFFCURVE",
"729 385 CURVE SMOOTH",
"729 404 OFFCURVE",
"713 424 OFFCURVE",
"689 435 CURVE SMOOTH",
"610 472 OFFCURVE",
"478 479 OFFCURVE",
"392 479 CURVE SMOOTH",
"305 479 OFFCURVE",
"188 472 OFFCURVE",
"108 435 CURVE SMOOTH",
"85 424 OFFCURVE",
"68 404 OFFCURVE",
"68 385 CURVE SMOOTH",
"68 284 OFFCURVE",
"594 -1 OFFCURVE",
"646 -1 CURVE SMOOTH",
"668 -1 OFFCURVE",
"688 20 OFFCURVE",
"688 43 CURVE SMOOTH",
"688 58 OFFCURVE",
"678 75 OFFCURVE",
"657 84 CURVE SMOOTH",
"512 147 OFFCURVE",
"368 214 OFFCURVE",
"182 368 CURVE",
"232 380 OFFCURVE",
"309 391 OFFCURVE",
"392 391 CURVE SMOOTH",
"475 391 OFFCURVE",
"561 380 OFFCURVE",
"611 368 CURVE",
"437 290 OFFCURVE",
"242 170 OFFCURVE",
"104 71 CURVE SMOOTH",
"86 58 OFFCURVE",
"73 44 OFFCURVE",
"73 30 CURVE SMOOTH",
"73 7 OFFCURVE",
"93 -15 OFFCURVE",
"115 -15 CURVE SMOOTH"
);
}
);
width = 798;
}
);
unicode = 1BD6;
},
{
glyphname = uni1BD7;
lastChange = "2017-09-05 13:40:55 +0000";
layers = (
{
layerId = UUID0;
paths = (
{
closed = 1;
nodes = (
"488 -10 OFFCURVE",
"554 56 OFFCURVE",
"608 126 CURVE SMOOTH",
"660 193 LINE SMOOTH",
"704 250 OFFCURVE",
"743 276 OFFCURVE",
"792 276 CURVE SMOOTH",
"863 276 OFFCURVE",
"915 210 OFFCURVE",
"915 142 CURVE SMOOTH",
"915 92 OFFCURVE",
"888 78 OFFCURVE",
"775 78 CURVE SMOOTH",
"735 78 OFFCURVE",
"714 65 OFFCURVE",
"714 38 CURVE SMOOTH",
"714 -3 OFFCURVE",
"735 -10 OFFCURVE",
"773 -10 CURVE SMOOTH",
"942 -10 OFFCURVE",
"1010 22 OFFCURVE",
"1010 142 CURVE SMOOTH",
"1010 259 OFFCURVE",
"922 364 OFFCURVE",
"794 364 CURVE SMOOTH",
"693 364 OFFCURVE",
"633 306 OFFCURVE",
"579 234 CURVE SMOOTH",
"528 166 LINE SMOOTH",
"485 108 OFFCURVE",
"438 78 OFFCURVE",
"390 78 CURVE SMOOTH",
"322 78 OFFCURVE",
"250 144 OFFCURVE",
"246 339 CURVE",
"331 339 OFFCURVE",
"379 333 OFFCURVE",
"398 333 CURVE SMOOTH",
"423 333 OFFCURVE",
"439 354 OFFCURVE",
"439 376 CURVE SMOOTH",
"439 396 OFFCURVE",
"428 409 OFFCURVE",
"405 418 CURVE SMOOTH",
"390 424 OFFCURVE",
"333 427 OFFCURVE",
"247 427 CURVE SMOOTH",
"153 427 OFFCURVE",
"103 423 OFFCURVE",
"88 418 CURVE SMOOTH",
"65 410 OFFCURVE",
"54 396 OFFCURVE",
"54 376 CURVE SMOOTH",
"54 354 OFFCURVE",
"70 333 OFFCURVE",
"95 333 CURVE SMOOTH",
"106 333 OFFCURVE",
"124 335 OFFCURVE",
"155 337 CURVE",
"157 101 OFFCURVE",
"266 -10 OFFCURVE",
"388 -10 CURVE SMOOTH"
);
}
);
width = 1073;
}
);
unicode = 1BD7;
},
{
glyphname = uni1BD8;
lastChange = "2017-09-05 13:40:55 +0000";
layers = (
{
layerId = UUID0;
paths = (
{
closed = 1;
nodes = (
"511 -15 OFFCURVE",
"531 8 OFFCURVE",
"531 31 CURVE SMOOTH",
"531 53 OFFCURVE",
"505 69 OFFCURVE",
"489 75 CURVE SMOOTH",
"292 144 LINE",
"363 233 OFFCURVE",
"609 371 OFFCURVE",
"826 394 CURVE SMOOTH",
"881 400 OFFCURVE",
"907 415 OFFCURVE",
"907 445 CURVE SMOOTH",
"907 477 OFFCURVE",
"866 479 OFFCURVE",
"835 479 CURVE SMOOTH",
"759 479 OFFCURVE",
"653 450 OFFCURVE",
"547 405 CURVE",
"424 465 OFFCURVE",
"267 508 OFFCURVE",
"120 508 CURVE SMOOTH",
"83 508 OFFCURVE",
"54 497 OFFCURVE",
"54 469 CURVE SMOOTH",
"54 454 OFFCURVE",
"60 439 OFFCURVE",
"75 433 CURVE SMOOTH",
"81 430 OFFCURVE",
"89 429 OFFCURVE",
"98 429 CURVE SMOOTH",
"262 420 OFFCURVE",
"349 395 OFFCURVE",
"443 355 CURVE",
"351 306 OFFCURVE",
"268 247 OFFCURVE",
"214 185 CURVE SMOOTH",
"201 171 OFFCURVE",
"183 151 OFFCURVE",
"183 134 CURVE SMOOTH",
"183 105 OFFCURVE",
"203 88 OFFCURVE",
"227 79 CURVE SMOOTH",
"462 -10 LINE SMOOTH",
"473 -14 OFFCURVE",
"479 -15 OFFCURVE",
"486 -15 CURVE SMOOTH"
);
}
);
width = 960;
}
);
unicode = 1BD8;
},
{
glyphname = uni1BD9;
lastChange = "2017-09-05 13:40:55 +0000";
layers = (
{
layerId = UUID0;
paths = (
{
closed = 1;
nodes = (
"99 256 OFFCURVE",
"106 259 OFFCURVE",
"115 262 CURVE SMOOTH",
"302 334 OFFCURVE",
"433 339 OFFCURVE",
"527 339 CURVE SMOOTH",
"668 339 OFFCURVE",
"816 325 OFFCURVE",
"927 285 CURVE SMOOTH",
"935 282 OFFCURVE",
"955 273 OFFCURVE",
"962 273 CURVE SMOOTH",
"987 273 OFFCURVE",
"1002 298 OFFCURVE",
"1002 320 CURVE SMOOTH",
"1002 333 OFFCURVE",
"997 348 OFFCURVE",
"987 354 CURVE SMOOTH",
"880 415 OFFCURVE",
"644 427 OFFCURVE",
"527 427 CURVE SMOOTH",
"430 427 OFFCURVE",
"224 407 OFFCURVE",
"72 334 CURVE SMOOTH",
"58 327 OFFCURVE",
"54 313 OFFCURVE",
"54 301 CURVE SMOOTH",
"54 278 OFFCURVE",
"68 256 OFFCURVE",
"92 256 CURVE SMOOTH"
);
},
{
closed = 1;
nodes = (
"453 -5 OFFCURVE",
"482 0 OFFCURVE",
"527 0 CURVE SMOOTH",
"565 0 OFFCURVE",
"601 -5 OFFCURVE",
"620 -5 CURVE SMOOTH",
"645 -5 OFFCURVE",
"661 16 OFFCURVE",
"661 38 CURVE SMOOTH",
"661 81 OFFCURVE",
"600 88 OFFCURVE",
"527 88 CURVE SMOOTH",
"458 88 OFFCURVE",
"393 83 OFFCURVE",
"393 38 CURVE SMOOTH",
"393 16 OFFCURVE",
"409 -5 OFFCURVE",
"434 -5 CURVE SMOOTH"
);
}
);
width = 1056;
}
);
unicode = 1BD9;
},
{
glyphname = uni1BDA;
lastChange = "2017-09-05 13:40:55 +0000";
layers = (
{
layerId = UUID0;
paths = (
{
closed = 1;
nodes = (
"99 256 OFFCURVE",
"106 259 OFFCURVE",
"115 262 CURVE SMOOTH",
"302 333 OFFCURVE",
"433 339 OFFCURVE",
"527 339 CURVE SMOOTH",
"668 339 OFFCURVE",
"816 325 OFFCURVE",
"927 285 CURVE SMOOTH",
"935 282 OFFCURVE",
"955 273 OFFCURVE",
"962 273 CURVE SMOOTH",
"987 273 OFFCURVE",
"1002 298 OFFCURVE",
"1002 320 CURVE SMOOTH",
"1002 333 OFFCURVE",
"997 348 OFFCURVE",
"987 354 CURVE SMOOTH",
"880 415 OFFCURVE",
"644 427 OFFCURVE",
"527 427 CURVE SMOOTH",
"430 427 OFFCURVE",
"224 407 OFFCURVE",
"72 334 CURVE SMOOTH",
"58 327 OFFCURVE",
"54 313 OFFCURVE",
"54 301 CURVE SMOOTH",
"54 278 OFFCURVE",
"68 256 OFFCURVE",
"92 256 CURVE SMOOTH"
);
},
{
closed = 1;
nodes = (
"584 -15 OFFCURVE",
"607 0 OFFCURVE",
"607 24 CURVE SMOOTH",
"607 75 OFFCURVE",
"388 326 OFFCURVE",
"330 378 CURVE",
"325 380 OFFCURVE",
"300 381 OFFCURVE",
"295 381 CURVE SMOOTH",
"272 381 OFFCURVE",
"242 361 OFFCURVE",
"242 336 CURVE",
"357 213 OFFCURVE",
"410 167 OFFCURVE",
"519 8 CURVE SMOOTH",
"528 -5 OFFCURVE",
"542 -15 OFFCURVE",
"562 -15 CURVE SMOOTH"
);
}
);
width = 1056;
}
);
unicode = 1BDA;
},
{
glyphname = uni1BDB;
lastChange = "2017-09-05 13:40:55 +0000";
layers = (
{
layerId = UUID0;
paths = (
{
closed = 1;
nodes = (
"488 -10 OFFCURVE",
"554 56 OFFCURVE",
"608 126 CURVE SMOOTH",
"660 193 LINE SMOOTH",
"704 250 OFFCURVE",
"743 276 OFFCURVE",
"792 276 CURVE SMOOTH",
"862 276 OFFCURVE",
"896 223 OFFCURVE",
"919 149 CURVE SMOOTH",
"928 121 OFFCURVE",
"929 77 OFFCURVE",
"974 77 CURVE SMOOTH",
"1004 77 OFFCURVE",
"1017 98 OFFCURVE",
"1017 117 CURVE SMOOTH",
"1017 132 OFFCURVE",
"1016 146 OFFCURVE",
"1011 164 CURVE SMOOTH",
"981 279 OFFCURVE",
"915 364 OFFCURVE",
"794 364 CURVE SMOOTH",
"693 364 OFFCURVE",
"633 306 OFFCURVE",
"579 234 CURVE SMOOTH",
"528 166 LINE SMOOTH",
"485 108 OFFCURVE",
"438 78 OFFCURVE",
"390 78 CURVE SMOOTH",
"322 78 OFFCURVE",
"250 144 OFFCURVE",
"246 339 CURVE",
"331 339 OFFCURVE",
"379 333 OFFCURVE",
"398 333 CURVE SMOOTH",
"423 333 OFFCURVE",
"439 354 OFFCURVE",
"439 376 CURVE SMOOTH",
"439 396 OFFCURVE",
"428 410 OFFCURVE",
"405 418 CURVE SMOOTH",
"390 423 OFFCURVE",
"333 427 OFFCURVE",
"247 427 CURVE SMOOTH",
"153 427 OFFCURVE",
"103 423 OFFCURVE",
"88 418 CURVE SMOOTH",
"65 410 OFFCURVE",
"54 396 OFFCURVE",
"54 376 CURVE SMOOTH",
"54 354 OFFCURVE",
"70 333 OFFCURVE",
"95 333 CURVE SMOOTH",
"106 333 OFFCURVE",
"124 335 OFFCURVE",
"155 337 CURVE",
"157 101 OFFCURVE",
"266 -10 OFFCURVE",
"388 -10 CURVE SMOOTH"
);
}
);
width = 1070;
}
);
unicode = 1BDB;
},
{
glyphname = uni1BDC;
lastChange = "2017-09-05 13:40:55 +0000";
layers = (
{
layerId = UUID0;
paths = (
{
closed = 1;
nodes = (
"488 -10 OFFCURVE",
"554 56 OFFCURVE",
"608 126 CURVE SMOOTH",
"660 193 LINE SMOOTH",
"704 250 OFFCURVE",
"743 276 OFFCURVE",
"792 276 CURVE SMOOTH",
"862 276 OFFCURVE",
"896 223 OFFCURVE",
"919 149 CURVE SMOOTH",
"928 121 OFFCURVE",
"929 77 OFFCURVE",
"974 77 CURVE SMOOTH",
"1004 77 OFFCURVE",
"1017 98 OFFCURVE",
"1017 117 CURVE SMOOTH",
"1017 132 OFFCURVE",
"1016 146 OFFCURVE",
"1011 164 CURVE SMOOTH",
"981 279 OFFCURVE",
"915 364 OFFCURVE",
"794 364 CURVE SMOOTH",
"693 364 OFFCURVE",
"633 306 OFFCURVE",
"579 234 CURVE SMOOTH",
"528 166 LINE SMOOTH",
"485 108 OFFCURVE",
"438 78 OFFCURVE",
"390 78 CURVE SMOOTH",
"309 78 OFFCURVE",
"280 152 OFFCURVE",
"261 210 CURVE SMOOTH",
"250 243 OFFCURVE",
"251 283 OFFCURVE",
"207 283 CURVE SMOOTH",
"177 283 OFFCURVE",
"164 262 OFFCURVE",
"164 243 CURVE SMOOTH",
"164 228 OFFCURVE",
"165 214 OFFCURVE",
"170 196 CURVE SMOOTH",
"198 87 OFFCURVE",
"263 -10 OFFCURVE",
"388 -10 CURVE SMOOTH"
);
},
{
closed = 1;
nodes = (
"114 333 OFFCURVE",
"153 339 OFFCURVE",
"247 339 CURVE SMOOTH",
"333 339 OFFCURVE",
"379 333 OFFCURVE",
"398 333 CURVE SMOOTH",
"423 333 OFFCURVE",
"439 354 OFFCURVE",
"439 376 CURVE SMOOTH",
"439 396 OFFCURVE",
"428 410 OFFCURVE",
"405 418 CURVE SMOOTH",
"390 423 OFFCURVE",
"333 427 OFFCURVE",
"247 427 CURVE SMOOTH",
"153 427 OFFCURVE",
"103 423 OFFCURVE",
"88 418 CURVE SMOOTH",
"65 410 OFFCURVE",
"54 396 OFFCURVE",
"54 376 CURVE SMOOTH",
"54 354 OFFCURVE",
"70 333 OFFCURVE",
"95 333 CURVE SMOOTH"
);
}
);
width = 1070;
}
);
unicode = 1BDC;
},
{
glyphname = uni1BDD;
lastChange = "2017-09-05 13:40:55 +0000";
layers = (
{
layerId = UUID0;
paths = (
{
closed = 1;
nodes = (
"682 -10 OFFCURVE",
"703 9 OFFCURVE",
"703 35 CURVE SMOOTH",
"703 52 OFFCURVE",
"694 70 OFFCURVE",
"676 74 CURVE SMOOTH",
"648 80 OFFCURVE",
"480 129 OFFCURVE",
"398 156 CURVE SMOOTH",
"347 173 OFFCURVE",
"245 213 OFFCURVE",
"206 234 CURVE",
"251 263 OFFCURVE",
"348 295 OFFCURVE",
"398 314 CURVE SMOOTH",
"491 349 OFFCURVE",
"651 390 OFFCURVE",
"676 396 CURVE SMOOTH",
"694 400 OFFCURVE",
"703 417 OFFCURVE",
"703 434 CURVE SMOOTH",
"703 460 OFFCURVE",
"682 479 OFFCURVE",
"661 479 CURVE SMOOTH",
"628 479 OFFCURVE",
"450 424 OFFCURVE",
"364 394 CURVE SMOOTH",
"275 363 OFFCURVE",
"105 294 OFFCURVE",
"76 273 CURVE SMOOTH",
"61 262 OFFCURVE",
"54 251 OFFCURVE",
"54 238 CURVE SMOOTH",
"54 220 OFFCURVE",
"65 206 OFFCURVE",
"78 196 CURVE SMOOTH",
"103 177 OFFCURVE",
"278 104 OFFCURVE",
"364 75 CURVE SMOOTH",
"450 46 OFFCURVE",
"628 -10 OFFCURVE",
"661 -10 CURVE SMOOTH"
);
}
);
width = 756;
}
);
unicode = 1BDD;
},
{
glyphname = uni1BDE;
lastChange = "2017-09-05 13:40:55 +0000";
layers = (
{
layerId = UUID0;
paths = (
{
closed = 1;
nodes = (
"316 89 OFFCURVE",
"340 108 OFFCURVE",
"340 132 CURVE SMOOTH",
"340 145 OFFCURVE",
"333 160 OFFCURVE",
"325 169 CURVE SMOOTH",
"291 210 OFFCURVE",
"234 261 OFFCURVE",
"177 303 CURVE",
"245 322 OFFCURVE",
"388 339 OFFCURVE",
"466 339 CURVE SMOOTH",
"548 339 OFFCURVE",
"732 328 OFFCURVE",
"788 308 CURVE SMOOTH",
"795 305 OFFCURVE",
"825 295 OFFCURVE",
"836 295 CURVE SMOOTH",
"861 295 OFFCURVE",
"877 318 OFFCURVE",
"877 341 CURVE SMOOTH",
"877 354 OFFCURVE",
"869 371 OFFCURVE",
"850 379 CURVE SMOOTH",
"741 424 OFFCURVE",
"541 427 OFFCURVE",
"466 427 CURVE SMOOTH",
"379 427 OFFCURVE",
"166 410 OFFCURVE",
"86 368 CURVE SMOOTH",
"63 356 OFFCURVE",
"54 342 OFFCURVE",
"54 323 CURVE SMOOTH",
"54 298 OFFCURVE",
"62 287 OFFCURVE",
"77 276 CURVE SMOOTH",
"132 237 OFFCURVE",
"209 172 OFFCURVE",
"260 104 CURVE SMOOTH",
"270 91 OFFCURVE",
"284 89 OFFCURVE",
"294 89 CURVE SMOOTH"
);
}
);
width = 931;
}
);
unicode = 1BDE;
},
{
glyphname = uni1BDF;
lastChange = "2017-09-05 13:40:55 +0000";
layers = (
{
layerId = UUID0;
paths = (
{
closed = 1;
nodes = (
"99 254 OFFCURVE",
"106 257 OFFCURVE",
"115 260 CURVE SMOOTH",
"302 332 OFFCURVE",
"392 339 OFFCURVE",
"527 339 CURVE SMOOTH",
"668 339 OFFCURVE",
"791 320 OFFCURVE",
"927 266 CURVE SMOOTH",
"935 263 OFFCURVE",
"955 254 OFFCURVE",
"962 254 CURVE SMOOTH",
"987 254 OFFCURVE",
"1002 278 OFFCURVE",
"1002 301 CURVE SMOOTH",
"1002 313 OFFCURVE",
"998 326 OFFCURVE",
"987 332 CURVE SMOOTH",
"862 404 OFFCURVE",
"644 427 OFFCURVE",
"527 427 CURVE SMOOTH",
"410 427 OFFCURVE",
"244 417 OFFCURVE",
"72 333 CURVE SMOOTH",
"57 326 OFFCURVE",
"54 311 OFFCURVE",
"54 299 CURVE SMOOTH",
"54 276 OFFCURVE",
"68 254 OFFCURVE",
"92 254 CURVE SMOOTH"
);
},
{
closed = 1;
nodes = (
"128 -5 OFFCURVE",
"158 0 OFFCURVE",
"203 0 CURVE SMOOTH",
"240 0 OFFCURVE",
"276 -5 OFFCURVE",
"295 -5 CURVE SMOOTH",
"320 -5 OFFCURVE",
"336 16 OFFCURVE",
"336 38 CURVE SMOOTH",
"336 81 OFFCURVE",
"275 88 OFFCURVE",
"203 88 CURVE SMOOTH",
"131 88 OFFCURVE",
"68 82 OFFCURVE",
"68 38 CURVE SMOOTH",
"68 16 OFFCURVE",
"84 -5 OFFCURVE",
"109 -5 CURVE SMOOTH"
);
}
);
width = 1056;
}
);
unicode = 1BDF;
},
{
glyphname = uni1BE0;
lastChange = "2017-09-05 13:40:55 +0000";
layers = (
{
layerId = UUID0;
paths = (
{
closed = 1;
nodes = (
"365 -12 OFFCURVE",
"386 10 OFFCURVE",
"386 33 CURVE SMOOTH",
"386 84 OFFCURVE",
"203 143 OFFCURVE",
"168 151 CURVE",
"359 293 OFFCURVE",
"578 332 OFFCURVE",
"796 340 CURVE SMOOTH",
"838 342 OFFCURVE",
"864 350 OFFCURVE",
"864 380 CURVE SMOOTH",
"864 420 OFFCURVE",
"823 427 OFFCURVE",
"792 427 CURVE SMOOTH",
"571 427 OFFCURVE",
"268 358 OFFCURVE",
"84 193 CURVE SMOOTH",
"70 180 OFFCURVE",
"54 156 OFFCURVE",
"54 144 CURVE SMOOTH",
"54 115 OFFCURVE",
"77 94 OFFCURVE",
"101 86 CURVE SMOOTH",
"172 62 OFFCURVE",
"234 39 OFFCURVE",
"317 -7 CURVE SMOOTH",
"325 -12 OFFCURVE",
"333 -12 OFFCURVE",
"340 -12 CURVE SMOOTH"
);
},
{
closed = 1;
nodes = (
"623 67 OFFCURVE",
"643 88 OFFCURVE",
"643 108 CURVE SMOOTH",
"643 130 OFFCURVE",
"631 151 OFFCURVE",
"546 199 CURVE SMOOTH",
"480 236 OFFCURVE",
"455 241 OFFCURVE",
"440 241 CURVE SMOOTH",
"416 241 OFFCURVE",
"397 224 OFFCURVE",
"397 199 CURVE SMOOTH",
"397 161 OFFCURVE",
"431 163 OFFCURVE",
"503 123 CURVE SMOOTH",
"551 96 OFFCURVE",
"580 67 OFFCURVE",
"601 67 CURVE SMOOTH"
);
}
);
width = 917;
}
);
unicode = 1BE0;
},
{
glyphname = uni1BE1;
lastChange = "2017-09-05 13:40:55 +0000";
layers = (
{
layerId = UUID0;
paths = (
{
closed = 1;
nodes = (
"459 -10 OFFCURVE",
"489 266 OFFCURVE",
"574 266 CURVE SMOOTH",
"648 266 OFFCURVE",
"646 98 OFFCURVE",
"789 98 CURVE SMOOTH",
"893 98 OFFCURVE",
"963 207 OFFCURVE",
"963 295 CURVE SMOOTH",
"963 313 OFFCURVE",
"950 334 OFFCURVE",
"920 334 CURVE SMOOTH",
"875 334 OFFCURVE",
"879 289 OFFCURVE",
"866 262 CURVE SMOOTH",
"858 245 OFFCURVE",
"839 186 OFFCURVE",
"787 186 CURVE SMOOTH",
"708 186 OFFCURVE",
"703 354 OFFCURVE",
"576 354 CURVE SMOOTH",
"531 354 OFFCURVE",
"497 328 OFFCURVE",
"468 293 CURVE",
"429 377 OFFCURVE",
"362 427 OFFCURVE",
"284 427 CURVE SMOOTH",
"148 427 OFFCURVE",
"63 329 OFFCURVE",
"63 208 CURVE SMOOTH",
"63 88 OFFCURVE",
"151 -10 OFFCURVE",
"265 -10 CURVE SMOOTH"
);
},
{
closed = 1;
nodes = (
"205 78 OFFCURVE",
"161 136 OFFCURVE",
"161 208 CURVE SMOOTH",
"161 280 OFFCURVE",
"203 339 OFFCURVE",
"277 339 CURVE SMOOTH",
"329 339 OFFCURVE",
"384 294 OFFCURVE",
"404 199 CURVE",
"366 136 OFFCURVE",
"330 78 OFFCURVE",
"277 78 CURVE SMOOTH"
);
}
);
width = 1017;
}
);
unicode = 1BE1;
},
{
glyphname = uni1BE2;
lastChange = "2017-09-05 13:40:55 +0000";
layers = (
{
layerId = UUID0;
paths = (
{
closed = 1;
nodes = (
"802 147 OFFCURVE",
"821 167 OFFCURVE",
"821 193 CURVE SMOOTH",
"821 206 OFFCURVE",
"815 219 OFFCURVE",
"804 227 CURVE SMOOTH",
"759 258 OFFCURVE",
"624 320 OFFCURVE",
"487 376 CURVE SMOOTH",
"357 429 OFFCURVE",
"194 479 OFFCURVE",
"159 479 CURVE SMOOTH",
"128 479 OFFCURVE",
"107 462 OFFCURVE",
"107 435 CURVE SMOOTH",
"107 422 OFFCURVE",
"113 409 OFFCURVE",
"125 401 CURVE SMOOTH",
"148 385 OFFCURVE",
"211 389 OFFCURVE",
"428 301 CURVE SMOOTH",
"553 250 OFFCURVE",
"707 178 OFFCURVE",
"729 167 CURVE SMOOTH",
"733 164 OFFCURVE",
"763 147 OFFCURVE",
"778 147 CURVE SMOOTH"
);
},
{
closed = 1;
nodes = (
"109 -15 OFFCURVE",
"126 -12 OFFCURVE",
"134 -7 CURVE SMOOTH",
"166 14 OFFCURVE",
"198 31 OFFCURVE",
"259 58 CURVE SMOOTH",
"321 85 OFFCURVE",
"366 96 OFFCURVE",
"408 114 CURVE SMOOTH",
"430 124 OFFCURVE",
"438 141 OFFCURVE",
"438 156 CURVE SMOOTH",
"438 179 OFFCURVE",
"420 201 OFFCURVE",
"397 201 CURVE SMOOTH",
"368 201 OFFCURVE",
"271 161 OFFCURVE",
"215 136 CURVE SMOOTH",
"151 107 OFFCURVE",
"124 95 OFFCURVE",
"83 69 CURVE SMOOTH",
"70 61 OFFCURVE",
"54 51 OFFCURVE",
"54 30 CURVE SMOOTH",
"54 7 OFFCURVE",
"76 -15 OFFCURVE",
"99 -15 CURVE SMOOTH"
);
}
);
width = 875;
}
);
unicode = 1BE2;
},
{
glyphname = uni1BE3;
lastChange = "2017-09-05 13:40:55 +0000";
layers = (
{
layerId = UUID0;
paths = (
{
closed = 1;
nodes = (
"725 -10 OFFCURVE",
"922 61 OFFCURVE",
"922 234 CURVE SMOOTH",
"922 409 OFFCURVE",
"719 479 OFFCURVE",
"495 479 CURVE SMOOTH",
"279 479 OFFCURVE",
"68 409 OFFCURVE",
"68 234 CURVE SMOOTH",
"68 64 OFFCURVE",
"254 -10 OFFCURVE",
"495 -10 CURVE SMOOTH"
);
},
{
closed = 1;
nodes = (
"332 78 OFFCURVE",
"163 116 OFFCURVE",
"163 234 CURVE SMOOTH",
"163 353 OFFCURVE",
"335 391 OFFCURVE",
"495 391 CURVE SMOOTH",
"655 391 OFFCURVE",
"827 351 OFFCURVE",
"827 234 CURVE SMOOTH",
"827 120 OFFCURVE",
"664 78 OFFCURVE",
"495 78 CURVE SMOOTH"
);
},
{
closed = 1;
nodes = (
"533 174 OFFCURVE",
"563 204 OFFCURVE",
"563 242 CURVE SMOOTH",
"563 279 OFFCURVE",
"533 310 OFFCURVE",
"495 310 CURVE SMOOTH",
"458 310 OFFCURVE",
"427 279 OFFCURVE",
"427 242 CURVE SMOOTH",
"427 204 OFFCURVE",
"458 174 OFFCURVE",
"495 174 CURVE SMOOTH"
);
}
);
width = 990;
}
);
unicode = 1BE3;
},
{
glyphname = uni1BE4;
lastChange = "2017-09-05 13:40:55 +0000";
layers = (
{
layerId = UUID0;
paths = (
{
closed = 1;
nodes = (
"106 388 OFFCURVE",
"136 397 OFFCURVE",
"144 400 CURVE SMOOTH",
"199 420 OFFCURVE",
"340 439 OFFCURVE",
"456 439 CURVE SMOOTH",
"563 439 OFFCURVE",
"713 420 OFFCURVE",
"767 401 CURVE SMOOTH",
"774 398 OFFCURVE",
"804 388 OFFCURVE",
"818 388 CURVE SMOOTH",
"843 388 OFFCURVE",
"859 412 OFFCURVE",
"859 434 CURVE SMOOTH",
"859 453 OFFCURVE",
"848 464 OFFCURVE",
"824 476 CURVE SMOOTH",
"745 517 OFFCURVE",
"542 527 OFFCURVE",
"456 527 CURVE SMOOTH",
"362 527 OFFCURVE",
"168 518 OFFCURVE",
"82 472 CURVE SMOOTH",
"63 462 OFFCURVE",
"54 446 OFFCURVE",
"54 434 CURVE SMOOTH",
"54 411 OFFCURVE",
"70 388 OFFCURVE",
"95 388 CURVE SMOOTH"
);
},
{
closed = 1;
nodes = (
"381 -5 OFFCURVE",
"410 0 OFFCURVE",
"455 0 CURVE SMOOTH",
"493 0 OFFCURVE",
"528 -5 OFFCURVE",
"548 -5 CURVE SMOOTH",
"573 -5 OFFCURVE",
"589 16 OFFCURVE",
"589 38 CURVE SMOOTH",
"589 81 OFFCURVE",
"529 88 OFFCURVE",
"455 88 CURVE SMOOTH",
"389 88 OFFCURVE",
"320 83 OFFCURVE",
"320 38 CURVE SMOOTH",
"320 16 OFFCURVE",
"336 -5 OFFCURVE",
"361 -5 CURVE SMOOTH"
);
},
{
closed = 1;
nodes = (
"297 209 OFFCURVE",
"360 220 OFFCURVE",
"454 220 CURVE SMOOTH",
"541 220 OFFCURVE",
"610 209 OFFCURVE",
"630 209 CURVE SMOOTH",
"655 209 OFFCURVE",
"671 230 OFFCURVE",
"671 252 CURVE SMOOTH",
"671 271 OFFCURVE",
"660 285 OFFCURVE",
"636 294 CURVE SMOOTH",
"622 299 OFFCURVE",
"541 308 OFFCURVE",
"454 308 CURVE SMOOTH",
"360 308 OFFCURVE",
"286 299 OFFCURVE",
"271 294 CURVE SMOOTH",
"248 286 OFFCURVE",
"236 271 OFFCURVE",
"236 252 CURVE SMOOTH",
"236 230 OFFCURVE",
"252 209 OFFCURVE",
"277 209 CURVE SMOOTH"
);
}
);
width = 913;
}
);
unicode = 1BE4;
},
{
glyphname = uni1BE5;
lastChange = "2017-09-05 13:40:55 +0000";
layers = (
{
layerId = UUID0;
paths = (
{
closed = 1;
nodes = (
"542 -10 OFFCURVE",
"745 0 OFFCURVE",
"824 42 CURVE SMOOTH",
"847 54 OFFCURVE",
"859 64 OFFCURVE",
"859 83 CURVE SMOOTH",
"859 106 OFFCURVE",
"843 129 OFFCURVE",
"818 129 CURVE SMOOTH",
"804 129 OFFCURVE",
"774 120 OFFCURVE",
"767 117 CURVE SMOOTH",
"713 97 OFFCURVE",
"563 78 OFFCURVE",
"456 78 CURVE SMOOTH",
"340 78 OFFCURVE",
"199 97 OFFCURVE",
"144 117 CURVE SMOOTH",
"136 120 OFFCURVE",
"106 129 OFFCURVE",
"95 129 CURVE SMOOTH",
"70 129 OFFCURVE",
"54 106 OFFCURVE",
"54 84 CURVE SMOOTH",
"54 71 OFFCURVE",
"63 55 OFFCURVE",
"82 45 CURVE SMOOTH",
"168 0 OFFCURVE",
"362 -10 OFFCURVE",
"456 -10 CURVE SMOOTH"
);
},
{
closed = 1;
nodes = (
"541 209 OFFCURVE",
"622 218 OFFCURVE",
"636 224 CURVE SMOOTH",
"661 234 OFFCURVE",
"671 246 OFFCURVE",
"671 265 CURVE SMOOTH",
"671 288 OFFCURVE",
"655 309 OFFCURVE",
"630 309 CURVE SMOOTH",
"610 309 OFFCURVE",
"541 297 OFFCURVE",
"454 297 CURVE SMOOTH",
"360 297 OFFCURVE",
"297 309 OFFCURVE",
"277 309 CURVE SMOOTH",
"252 309 OFFCURVE",
"236 288 OFFCURVE",
"236 265 CURVE SMOOTH",
"236 246 OFFCURVE",
"248 232 OFFCURVE",
"271 224 CURVE SMOOTH",
"286 219 OFFCURVE",
"360 209 OFFCURVE",
"454 209 CURVE SMOOTH"
);
},
{
closed = 1;
nodes = (
"525 430 OFFCURVE",
"589 434 OFFCURVE",
"589 479 CURVE SMOOTH",
"589 502 OFFCURVE",
"573 523 OFFCURVE",
"548 523 CURVE SMOOTH",
"528 523 OFFCURVE",
"493 518 OFFCURVE",
"455 518 CURVE SMOOTH",
"410 518 OFFCURVE",
"381 523 OFFCURVE",
"361 523 CURVE SMOOTH",
"336 523 OFFCURVE",
"320 502 OFFCURVE",
"320 479 CURVE SMOOTH",
"320 434 OFFCURVE",
"383 430 OFFCURVE",
"455 430 CURVE SMOOTH"
);
}
);
width = 913;
}
);
unicode = 1BE5;
},
{
glyphname = uni1BE6;
lastChange = "2017-09-05 13:40:55 +0000";
layers = (
{
layerId = UUID0;
paths = (
{
closed = 1;
nodes = (
"-501 691 OFFCURVE",
"-472 696 OFFCURVE",
"-427 696 CURVE SMOOTH",
"-389 696 OFFCURVE",
"-354 691 OFFCURVE",
"-334 691 CURVE SMOOTH",
"-309 691 OFFCURVE",
"-293 701 OFFCURVE",
"-293 723 CURVE SMOOTH",
"-293 761 OFFCURVE",
"-353 768 OFFCURVE",
"-427 768 CURVE SMOOTH",
"-499 768 OFFCURVE",
"-562 761 OFFCURVE",
"-562 723 CURVE SMOOTH",
"-562 701 OFFCURVE",
"-545 691 OFFCURVE",
"-521 691 CURVE SMOOTH"
);
},
{
closed = 1;
nodes = (
"-501 552 OFFCURVE",
"-472 557 OFFCURVE",
"-427 557 CURVE SMOOTH",
"-389 557 OFFCURVE",
"-354 552 OFFCURVE",
"-334 552 CURVE SMOOTH",
"-309 552 OFFCURVE",
"-293 562 OFFCURVE",
"-293 584 CURVE SMOOTH",
"-293 622 OFFCURVE",
"-355 629 OFFCURVE",
"-427 629 CURVE SMOOTH",
"-494 629 OFFCURVE",
"-562 623 OFFCURVE",
"-562 584 CURVE SMOOTH",
"-562 562 OFFCURVE",
"-545 552 OFFCURVE",
"-521 552 CURVE SMOOTH"
);
}
);
width = 0;
}
);
unicode = 1BE6;
},
{
glyphname = uni1BE7;
lastChange = "2017-09-05 13:40:55 +0000";
layers = (
{
layerId = UUID0;
paths = (
{
closed = 1;
nodes = (
"94 0 OFFCURVE",
"270 147 OFFCURVE",
"270 192 CURVE SMOOTH",
"270 237 OFFCURVE",
"94 385 OFFCURVE",
"55 385 CURVE SMOOTH",
"33 385 OFFCURVE",
"15 370 OFFCURVE",
"15 345 CURVE SMOOTH",
"15 333 OFFCURVE",
"19 318 OFFCURVE",
"34 308 CURVE SMOOTH",
"75 281 OFFCURVE",
"133 239 OFFCURVE",
"173 191 CURVE",
"134 146 OFFCURVE",
"73 103 OFFCURVE",
"34 78 CURVE SMOOTH",
"19 68 OFFCURVE",
"15 53 OFFCURVE",
"15 41 CURVE SMOOTH",
"15 15 OFFCURVE",
"33 0 OFFCURVE",
"55 0 CURVE SMOOTH"
);
}
);
width = 318;
}
);
unicode = 1BE7;
},
{
glyphname = uni1BE8;
lastChange = "2017-09-05 13:40:55 +0000";
layers = (
{
layerId = UUID0;
paths = (
{
closed = 1;
nodes = (
"-172 552 OFFCURVE",
"-164 556 OFFCURVE",
"-156 563 CURVE SMOOTH",
"-114 604 OFFCURVE",
"-67 639 OFFCURVE",
"-23 668 CURVE SMOOTH",
"-10 677 OFFCURVE",
"0 693 OFFCURVE",
"0 708 CURVE SMOOTH",
"0 756 OFFCURVE",
"-148 861 OFFCURVE",
"-183 861 CURVE SMOOTH",
"-204 861 OFFCURVE",
"-220 847 OFFCURVE",
"-220 823 CURVE SMOOTH",
"-220 810 OFFCURVE",
"-210 797 OFFCURVE",
"-196 789 CURVE SMOOTH",
"-155 764 OFFCURVE",
"-114 740 OFFCURVE",
"-86 708 CURVE",
"-125 688 OFFCURVE",
"-177 646 OFFCURVE",
"-196 625 CURVE SMOOTH",
"-207 613 OFFCURVE",
"-220 603 OFFCURVE",
"-220 590 CURVE SMOOTH",
"-220 566 OFFCURVE",
"-204 552 OFFCURVE",
"-183 552 CURVE SMOOTH"
);
}
);
width = 0;
}
);
unicode = 1BE8;
},
{
glyphname = uni1BE9;
lastChange = "2017-09-05 13:40:55 +0000";
layers = (
{
layerId = UUID0;
paths = (
{
closed = 1;
nodes = (
"-521 552 OFFCURVE",
"-481 557 OFFCURVE",
"-437 557 CURVE SMOOTH",
"-399 557 OFFCURVE",
"-354 552 OFFCURVE",
"-334 552 CURVE SMOOTH",
"-309 552 OFFCURVE",
"-293 562 OFFCURVE",
"-293 584 CURVE SMOOTH",
"-293 624 OFFCURVE",
"-362 629 OFFCURVE",
"-437 629 CURVE SMOOTH",
"-511 629 OFFCURVE",
"-581 624 OFFCURVE",
"-581 584 CURVE SMOOTH",
"-581 562 OFFCURVE",
"-565 552 OFFCURVE",
"-540 552 CURVE SMOOTH"
);
}
);
width = 0;
}
);
unicode = 1BE9;
},
{
glyphname = uni1BEA;
lastChange = "2017-09-05 13:40:55 +0000";
layers = (
{
layerId = UUID0;
paths = (
{
closed = 1;
nodes = (
"344 0 OFFCURVE",
"434 92 OFFCURVE",
"434 205 CURVE SMOOTH",
"434 311 OFFCURVE",
"354 395 OFFCURVE",
"230 395 CURVE SMOOTH",
"105 395 OFFCURVE",
"15 304 OFFCURVE",
"15 189 CURVE SMOOTH",
"15 84 OFFCURVE",
"94 0 OFFCURVE",
"216 0 CURVE SMOOTH"
);
},
{
closed = 1;
nodes = (
"150 83 OFFCURVE",
"103 131 OFFCURVE",
"103 192 CURVE SMOOTH",
"103 264 OFFCURVE",
"164 312 OFFCURVE",
"227 312 CURVE SMOOTH",
"297 312 OFFCURVE",
"345 263 OFFCURVE",
"345 202 CURVE SMOOTH",
"345 136 OFFCURVE",
"293 83 OFFCURVE",
"219 83 CURVE SMOOTH"
);
}
);
width = 483;
}
);
unicode = 1BEA;
},
{
glyphname = uni1BEB;
lastChange = "2017-09-05 13:40:55 +0000";
layers = (
{
layerId = UUID0;
paths = (
{
closed = 1;
nodes = (
"75 265 OFFCURVE",
"109 271 OFFCURVE",
"154 271 CURVE SMOOTH",
"192 271 OFFCURVE",
"237 265 OFFCURVE",
"257 265 CURVE SMOOTH",
"282 265 OFFCURVE",
"298 275 OFFCURVE",
"298 297 CURVE SMOOTH",
"298 338 OFFCURVE",
"231 342 OFFCURVE",
"154 342 CURVE SMOOTH",
"81 342 OFFCURVE",
"15 338 OFFCURVE",
"15 297 CURVE SMOOTH",
"15 275 OFFCURVE",
"31 265 OFFCURVE",
"56 265 CURVE SMOOTH"
);
},
{
closed = 1;
nodes = (
"75 102 OFFCURVE",
"109 107 OFFCURVE",
"154 107 CURVE SMOOTH",
"192 107 OFFCURVE",
"237 102 OFFCURVE",
"257 102 CURVE SMOOTH",
"282 102 OFFCURVE",
"298 111 OFFCURVE",
"298 134 CURVE SMOOTH",
"298 173 OFFCURVE",
"230 179 OFFCURVE",
"154 179 CURVE SMOOTH",
"83 179 OFFCURVE",
"15 174 OFFCURVE",
"15 134 CURVE SMOOTH",
"15 111 OFFCURVE",
"31 102 OFFCURVE",
"56 102 CURVE SMOOTH"
);
}
);
width = 347;
}
);
unicode = 1BEB;
},
{
glyphname = uni1BEC;
lastChange = "2017-09-05 13:40:55 +0000";
layers = (
{
layerId = UUID0;
paths = (
{
closed = 1;
nodes = (
"71 0 OFFCURVE",
"78 2 OFFCURVE",
"86 6 CURVE SMOOTH",
"194 59 OFFCURVE",
"415 280 OFFCURVE",
"467 359 CURVE SMOOTH",
"471 365 OFFCURVE",
"473 372 OFFCURVE",
"473 379 CURVE SMOOTH",
"472 401 OFFCURVE",
"456 418 OFFCURVE",
"435 418 CURVE SMOOTH",
"427 418 OFFCURVE",
"419 415 OFFCURVE",
"412 408 CURVE SMOOTH",
"397 392 OFFCURVE",
"343 322 OFFCURVE",
"256 240 CURVE SMOOTH",
"61 58 OFFCURVE",
"27 80 OFFCURVE",
"27 39 CURVE SMOOTH",
"27 21 OFFCURVE",
"42 0 OFFCURVE",
"63 0 CURVE SMOOTH"
);
},
{
closed = 1;
nodes = (
"465 5 OFFCURVE",
"484 18 OFFCURVE",
"484 41 CURVE SMOOTH",
"484 51 OFFCURVE",
"477 64 OFFCURVE",
"464 80 CURVE SMOOTH",
"427 126 OFFCURVE",
"323 216 OFFCURVE",
"289 244 CURVE SMOOTH",
"238 285 OFFCURVE",
"104 388 OFFCURVE",
"64 388 CURVE SMOOTH",
"46 388 OFFCURVE",
"24 373 OFFCURVE",
"24 349 CURVE SMOOTH",
"24 336 OFFCURVE",
"31 326 OFFCURVE",
"49 315 CURVE SMOOTH",
"73 301 OFFCURVE",
"175 223 OFFCURVE",
"229 181 CURVE SMOOTH",
"360 79 OFFCURVE",
"414 5 OFFCURVE",
"446 5 CURVE SMOOTH"
);
}
);
width = 533;
}
);
unicode = 1BEC;
},
{
glyphname = uni1BED;
lastChange = "2017-09-05 13:40:55 +0000";
layers = (
{
layerId = UUID0;
paths = (
{
closed = 1;
nodes = (
"-172 552 OFFCURVE",
"-164 556 OFFCURVE",
"-156 563 CURVE",
"-114 604 OFFCURVE",
"-67 639 OFFCURVE",
"-23 668 CURVE SMOOTH",
"-10 677 OFFCURVE",
"0 693 OFFCURVE",
"0 708 CURVE SMOOTH",
"0 758 OFFCURVE",
"-151 861 OFFCURVE",
"-183 861 CURVE SMOOTH",
"-204 861 OFFCURVE",
"-220 847 OFFCURVE",
"-220 823 CURVE SMOOTH",
"-220 810 OFFCURVE",
"-210 797 OFFCURVE",
"-196 789 CURVE SMOOTH",
"-155 764 OFFCURVE",
"-114 740 OFFCURVE",
"-86 708 CURVE",
"-125 688 OFFCURVE",
"-177 646 OFFCURVE",
"-196 625 CURVE SMOOTH",
"-207 613 OFFCURVE",
"-220 603 OFFCURVE",
"-220 590 CURVE SMOOTH",
"-220 566 OFFCURVE",
"-204 552 OFFCURVE",
"-183 552 CURVE SMOOTH"
);
},
{
closed = 1;
nodes = (
"-448 684 OFFCURVE",
"-409 689 OFFCURVE",
"-364 689 CURVE SMOOTH",
"-326 689 OFFCURVE",
"-281 684 OFFCURVE",
"-261 684 CURVE SMOOTH",
"-236 684 OFFCURVE",
"-220 694 OFFCURVE",
"-220 716 CURVE SMOOTH",
"-220 755 OFFCURVE",
"-286 761 OFFCURVE",
"-364 761 CURVE SMOOTH",
"-440 761 OFFCURVE",
"-508 756 OFFCURVE",
"-508 716 CURVE SMOOTH",
"-508 694 OFFCURVE",
"-492 684 OFFCURVE",
"-467 684 CURVE SMOOTH"
);
}
);
width = 0;
}
);
unicode = 1BED;
},
{
glyphname = uni1BEE;
lastChange = "2017-09-05 13:40:55 +0000";
layers = (
{
layerId = UUID0;
paths = (
{
closed = 1;
nodes = (
"94 -191 OFFCURVE",
"270 -43 OFFCURVE",
"270 1 CURVE SMOOTH",
"270 46 OFFCURVE",
"94 194 OFFCURVE",
"55 194 CURVE SMOOTH",
"33 194 OFFCURVE",
"15 179 OFFCURVE",
"15 154 CURVE SMOOTH",
"15 142 OFFCURVE",
"19 127 OFFCURVE",
"34 117 CURVE SMOOTH",
"75 90 OFFCURVE",
"133 48 OFFCURVE",
"173 0 CURVE",
"134 -45 OFFCURVE",
"72 -87 OFFCURVE",
"34 -113 CURVE SMOOTH",
"18 -124 OFFCURVE",
"15 -138 OFFCURVE",
"15 -150 CURVE SMOOTH",
"15 -176 OFFCURVE",
"33 -191 OFFCURVE",
"55 -191 CURVE SMOOTH"
);
}
);
width = 0;
}
);
unicode = 1BEE;
},
{
glyphname = uni1BEF;
lastChange = "2017-09-05 13:40:55 +0000";
layers = (
{
layerId = UUID0;
paths = (
{
closed = 1;
nodes = (
"-370 552 OFFCURVE",
"-355 554 OFFCURVE",
"-348 559 CURVE SMOOTH",
"-319 578 OFFCURVE",
"-263 610 OFFCURVE",
"-238 623 CURVE SMOOTH",
"-212 636 OFFCURVE",
"-161 657 OFFCURVE",
"-128 665 CURVE SMOOTH",
"-107 670 OFFCURVE",
"-101 689 OFFCURVE",
"-101 703 CURVE SMOOTH",
"-101 724 OFFCURVE",
"-118 736 OFFCURVE",
"-138 736 CURVE SMOOTH",
"-165 736 OFFCURVE",
"-221 713 OFFCURVE",
"-270 690 CURVE SMOOTH",
"-327 663 OFFCURVE",
"-374 638 OFFCURVE",
"-389 625 CURVE SMOOTH",
"-399 617 OFFCURVE",
"-415 606 OFFCURVE",
"-415 588 CURVE SMOOTH",
"-415 567 OFFCURVE",
"-400 552 OFFCURVE",
"-379 552 CURVE SMOOTH"
);
}
);
width = 0;
}
);
unicode = 1BEF;
},
{
glyphname = uni1BF0;
lastChange = "2017-09-05 13:40:55 +0000";
layers = (
{
layerId = UUID0;
paths = (
{
closed = 1;
nodes = (
"-52 552 OFFCURVE",
"-13 557 OFFCURVE",
"32 557 CURVE SMOOTH",
"70 557 OFFCURVE",
"115 552 OFFCURVE",
"135 552 CURVE SMOOTH",
"160 552 OFFCURVE",
"176 562 OFFCURVE",
"176 584 CURVE SMOOTH",
"176 603 OFFCURVE",
"165 610 OFFCURVE",
"141 619 CURVE SMOOTH",
"126 625 OFFCURVE",
"80 629 OFFCURVE",
"32 629 CURVE SMOOTH",
"-22 629 OFFCURVE",
"-63 625 OFFCURVE",
"-78 619 CURVE SMOOTH",
"-101 610 OFFCURVE",
"-112 603 OFFCURVE",
"-112 584 CURVE SMOOTH",
"-112 562 OFFCURVE",
"-96 552 OFFCURVE",
"-71 552 CURVE SMOOTH"
);
}
);
width = 0;
}
);
unicode = 1BF0;
},
{
glyphname = uni1BF1;
lastChange = "2017-09-05 13:40:55 +0000";
layers = (
{
layerId = UUID0;
paths = (
{
closed = 1;
nodes = (
"-52 691 OFFCURVE",
"-22 696 OFFCURVE",
"22 696 CURVE SMOOTH",
"60 696 OFFCURVE",
"96 691 OFFCURVE",
"115 691 CURVE SMOOTH",
"140 691 OFFCURVE",
"156 701 OFFCURVE",
"156 723 CURVE SMOOTH",
"156 761 OFFCURVE",
"94 768 OFFCURVE",
"22 768 CURVE SMOOTH",
"-49 768 OFFCURVE",
"-112 762 OFFCURVE",
"-112 723 CURVE SMOOTH",
"-112 701 OFFCURVE",
"-96 691 OFFCURVE",
"-71 691 CURVE SMOOTH"
);
},
{
closed = 1;
nodes = (
"-52 552 OFFCURVE",
"-22 557 OFFCURVE",
"22 557 CURVE SMOOTH",
"60 557 OFFCURVE",
"96 552 OFFCURVE",
"115 552 CURVE SMOOTH",
"140 552 OFFCURVE",
"156 562 OFFCURVE",
"156 584 CURVE SMOOTH",
"156 622 OFFCURVE",
"93 629 OFFCURVE",
"22 629 CURVE SMOOTH",
"-46 629 OFFCURVE",
"-112 624 OFFCURVE",
"-112 584 CURVE SMOOTH",
"-112 562 OFFCURVE",
"-96 552 OFFCURVE",
"-71 552 CURVE SMOOTH"
);
}
);
width = 0;
}
);
unicode = 1BF1;
},
{
glyphname = uni1BF2;
lastChange = "2017-09-05 13:40:55 +0000";
layers = (
{
layerId = UUID0;
paths = (
{
closed = 1;
nodes = (
"484 0 OFFCURVE",
"500 21 OFFCURVE",
"500 44 CURVE SMOOTH",
"500 82 OFFCURVE",
"387 173 OFFCURVE",
"274 257 CURVE SMOOTH",
"198 313 OFFCURVE",
"120 361 OFFCURVE",
"71 379 CURVE SMOOTH",
"64 382 OFFCURVE",
"58 383 OFFCURVE",
"52 383 CURVE SMOOTH",
"30 383 OFFCURVE",
"15 362 OFFCURVE",
"15 344 CURVE SMOOTH",
"15 304 OFFCURVE",
"38 322 OFFCURVE",
"200 208 CURVE SMOOTH",
"284 149 OFFCURVE",
"366 85 OFFCURVE",
"439 8 CURVE SMOOTH",
"445 2 OFFCURVE",
"453 0 OFFCURVE",
"460 0 CURVE SMOOTH"
);
}
);
width = 549;
}
);
unicode = 1BF2;
},
{
glyphname = uni1BF3;
lastChange = "2017-09-05 13:40:55 +0000";
layers = (
{
layerId = UUID0;
paths = (
{
closed = 1;
nodes = (
"75 160 OFFCURVE",
"112 169 OFFCURVE",
"206 169 CURVE SMOOTH",
"292 169 OFFCURVE",
"335 160 OFFCURVE",
"354 160 CURVE SMOOTH",
"379 160 OFFCURVE",
"396 181 OFFCURVE",
"396 204 CURVE SMOOTH",
"396 223 OFFCURVE",
"385 233 OFFCURVE",
"361 239 CURVE SMOOTH",
"324 248 OFFCURVE",
"271 252 OFFCURVE",
"206 252 CURVE SMOOTH",
"144 252 OFFCURVE",
"78 247 OFFCURVE",
"49 239 CURVE SMOOTH",
"25 232 OFFCURVE",
"15 223 OFFCURVE",
"15 204 CURVE SMOOTH",
"15 181 OFFCURVE",
"31 160 OFFCURVE",
"56 160 CURVE SMOOTH"
);
}
);
width = 444;
}
);
unicode = 1BF3;
},
{
glyphname = uni1BFC;
lastChange = "2017-09-05 13:40:55 +0000";
layers = (
{
layerId = UUID0;
paths = (
{
closed = 1;
nodes = (
"291 -24 OFFCURVE",
"310 -7 OFFCURVE",
"310 12 CURVE SMOOTH",
"310 34 OFFCURVE",
"298 41 OFFCURVE",
"279 47 CURVE SMOOTH",
"250 57 OFFCURVE",
"190 77 OFFCURVE",
"190 109 CURVE SMOOTH",
"190 137 OFFCURVE",
"213 154 OFFCURVE",
"248 173 CURVE SMOOTH",
"312 208 LINE",
"355 167 OFFCURVE",
"427 113 OFFCURVE",
"527 113 CURVE SMOOTH",
"634 113 OFFCURVE",
"700 165 OFFCURVE",
"750 213 CURVE",
"823 173 LINE SMOOTH",
"857 154 OFFCURVE",
"880 137 OFFCURVE",
"880 109 CURVE SMOOTH",
"880 77 OFFCURVE",
"820 57 OFFCURVE",
"792 47 CURVE SMOOTH",
"772 40 OFFCURVE",
"761 34 OFFCURVE",
"761 12 CURVE SMOOTH",
"761 -7 OFFCURVE",
"779 -24 OFFCURVE",
"806 -24 CURVE SMOOTH",
"859 -24 OFFCURVE",
"963 15 OFFCURVE",
"963 117 CURVE SMOOTH",
"963 172 OFFCURVE",
"928 210 OFFCURVE",
"841 256 CURVE",
"898 280 OFFCURVE",
"963 314 OFFCURVE",
"963 376 CURVE SMOOTH",
"963 438 OFFCURVE",
"900 471 OFFCURVE",
"835 498 CURVE",
"921 543 OFFCURVE",
"963 580 OFFCURVE",
"963 641 CURVE SMOOTH",
"963 743 OFFCURVE",
"859 781 OFFCURVE",
"806 781 CURVE SMOOTH",
"779 781 OFFCURVE",
"761 764 OFFCURVE",
"761 745 CURVE SMOOTH",
"761 723 OFFCURVE",
"772 715 OFFCURVE",
"792 709 CURVE SMOOTH",
"820 700 OFFCURVE",
"880 680 OFFCURVE",
"880 648 CURVE SMOOTH",
"880 620 OFFCURVE",
"857 603 OFFCURVE",
"823 584 CURVE SMOOTH",
"751 544 LINE",
"701 593 OFFCURVE",
"635 646 OFFCURVE",
"527 646 CURVE SMOOTH",
"426 646 OFFCURVE",
"354 591 OFFCURVE",
"311 549 CURVE",
"248 584 LINE SMOOTH",
"213 603 OFFCURVE",
"190 620 OFFCURVE",
"190 648 CURVE SMOOTH",
"190 680 OFFCURVE",
"250 700 OFFCURVE",
"279 709 CURVE SMOOTH",
"298 715 OFFCURVE",
"310 723 OFFCURVE",
"310 745 CURVE SMOOTH",
"310 764 OFFCURVE",
"291 781 OFFCURVE",
"265 781 CURVE SMOOTH",
"211 781 OFFCURVE",
"107 743 OFFCURVE",
"107 641 CURVE SMOOTH",
"107 586 OFFCURVE",
"138 551 OFFCURVE",
"239 495 CURVE",
"173 468 OFFCURVE",
"107 436 OFFCURVE",
"107 372 CURVE SMOOTH",
"107 312 OFFCURVE",
"169 277 OFFCURVE",
"225 254 CURVE",
"136 205 OFFCURVE",
"107 169 OFFCURVE",
"107 117 CURVE SMOOTH",
"107 15 OFFCURVE",
"211 -24 OFFCURVE",
"265 -24 CURVE SMOOTH"
);
},
{
closed = 1;
nodes = (
"252 314 OFFCURVE",
"190 340 OFFCURVE",
"190 372 CURVE SMOOTH",
"190 404 OFFCURVE",
"263 434 OFFCURVE",
"320 451 CURVE",
"451 378 LINE",
"304 297 LINE"
);
},
{
closed = 1;
nodes = (
"463 191 OFFCURVE",
"413 226 OFFCURVE",
"382 248 CURVE",
"535 332 LINE",
"681 251 LINE",
"645 226 OFFCURVE",
"593 191 OFFCURVE",
"527 191 CURVE SMOOTH"
);
},
{
closed = 1;
nodes = (
"381 510 LINE",
"412 532 OFFCURVE",
"462 568 OFFCURVE",
"527 568 CURVE SMOOTH",
"593 568 OFFCURVE",
"646 532 OFFCURVE",
"682 506 CURVE",
"535 425 LINE"
);
},
{
closed = 1;
nodes = (
"620 378 LINE",
"755 454 LINE",
"811 436 OFFCURVE",
"880 408 OFFCURVE",
"880 376 CURVE SMOOTH",
"880 343 OFFCURVE",
"813 317 OFFCURVE",
"761 300 CURVE"
);
}
);
width = 1070;
}
);
unicode = 1BFC;
},
{
glyphname = uni1BFD;
lastChange = "2017-09-05 13:40:55 +0000";
layers = (
{
layerId = UUID0;
paths = (
{
closed = 1;
nodes = (
"604 -32 OFFCURVE",
"704 51 OFFCURVE",
"704 185 CURVE SMOOTH",
"704 201 OFFCURVE",
"701 218 OFFCURVE",
"696 233 CURVE",
"712 229 OFFCURVE",
"729 228 OFFCURVE",
"746 228 CURVE SMOOTH",
"879 228 OFFCURVE",
"959 321 OFFCURVE",
"995 377 CURVE",
"962 427 OFFCURVE",
"879 527 OFFCURVE",
"746 527 CURVE SMOOTH",
"729 527 OFFCURVE",
"712 524 OFFCURVE",
"696 519 CURVE",
"701 535 OFFCURVE",
"704 552 OFFCURVE",
"704 569 CURVE SMOOTH",
"704 703 OFFCURVE",
"604 786 OFFCURVE",
"554 818 CURVE",
"498 783 OFFCURVE",
"404 703 OFFCURVE",
"404 569 CURVE SMOOTH",
"404 552 OFFCURVE",
"406 535 OFFCURVE",
"410 520 CURVE",
"395 524 OFFCURVE",
"378 527 OFFCURVE",
"361 527 CURVE SMOOTH",
"228 527 OFFCURVE",
"145 427 OFFCURVE",
"112 377 CURVE",
"148 321 OFFCURVE",
"228 228 OFFCURVE",
"361 228 CURVE SMOOTH",
"378 228 OFFCURVE",
"395 229 OFFCURVE",
"410 233 CURVE",
"406 218 OFFCURVE",
"404 202 OFFCURVE",
"404 185 CURVE SMOOTH",
"404 51 OFFCURVE",
"498 -29 OFFCURVE",
"554 -64 CURVE"
);
},
{
closed = 1;
nodes = (
"531 50 OFFCURVE",
"482 104 OFFCURVE",
"482 183 CURVE SMOOTH",
"482 244 OFFCURVE",
"533 304 OFFCURVE",
"555 326 CURVE",
"590 295 OFFCURVE",
"625 246 OFFCURVE",
"625 183 CURVE SMOOTH",
"625 105 OFFCURVE",
"574 49 OFFCURVE",
"554 33 CURVE"
);
},
{
closed = 1;
nodes = (
"281 306 OFFCURVE",
"227 354 OFFCURVE",
"210 377 CURVE",
"226 397 OFFCURVE",
"282 449 OFFCURVE",
"360 449 CURVE SMOOTH",
"418 449 OFFCURVE",
"466 419 OFFCURVE",
"502 378 CURVE",
"480 356 OFFCURVE",
"420 306 OFFCURVE",
"360 306 CURVE SMOOTH"
);
},
{
closed = 1;
nodes = (
"534 449 OFFCURVE",
"482 509 OFFCURVE",
"482 571 CURVE SMOOTH",
"482 649 OFFCURVE",
"531 704 OFFCURVE",
"554 721 CURVE",
"574 705 OFFCURVE",
"625 649 OFFCURVE",
"625 571 CURVE SMOOTH",
"625 513 OFFCURVE",
"597 467 OFFCURVE",
"556 427 CURVE"
);
},
{
closed = 1;
nodes = (
"686 306 OFFCURVE",
"625 357 OFFCURVE",
"604 379 CURVE",
"645 421 OFFCURVE",
"690 449 OFFCURVE",
"748 449 CURVE SMOOTH",
"826 449 OFFCURVE",
"881 397 OFFCURVE",
"897 377 CURVE",
"881 354 OFFCURVE",
"826 306 OFFCURVE",
"748 306 CURVE SMOOTH"
);
}
);
width = 1107;
}
);
unicode = 1BFD;
},
{
glyphname = uni1BFE;
lastChange = "2017-09-05 13:40:55 +0000";
layers = (
{
layerId = UUID0;
paths = (
{
closed = 1;
nodes = (
"628 -15 OFFCURVE",
"729 63 OFFCURVE",
"729 195 CURVE SMOOTH",
"729 249 OFFCURVE",
"714 304 OFFCURVE",
"692 354 CURVE SMOOTH",
"651 446 LINE SMOOTH",
"636 479 OFFCURVE",
"622 518 OFFCURVE",
"622 570 CURVE SMOOTH",
"622 693 OFFCURVE",
"718 704 OFFCURVE",
"718 739 CURVE SMOOTH",
"718 769 OFFCURVE",
"696 781 OFFCURVE",
"678 781 CURVE SMOOTH",
"628 781 OFFCURVE",
"527 703 OFFCURVE",
"527 571 CURVE SMOOTH",
"527 518 OFFCURVE",
"542 462 OFFCURVE",
"564 413 CURVE SMOOTH",
"605 320 LINE SMOOTH",
"620 286 OFFCURVE",
"634 249 OFFCURVE",
"634 197 CURVE SMOOTH",
"634 74 OFFCURVE",
"539 63 OFFCURVE",
"539 27 CURVE SMOOTH",
"539 -2 OFFCURVE",
"560 -15 OFFCURVE",
"579 -15 CURVE SMOOTH"
);
},
{
closed = 1;
nodes = (
"223 -15 OFFCURVE",
"324 63 OFFCURVE",
"324 195 CURVE SMOOTH",
"324 249 OFFCURVE",
"309 304 OFFCURVE",
"287 354 CURVE SMOOTH",
"246 446 LINE SMOOTH",
"231 479 OFFCURVE",
"217 518 OFFCURVE",
"217 570 CURVE SMOOTH",
"217 693 OFFCURVE",
"313 704 OFFCURVE",
"313 739 CURVE SMOOTH",
"313 769 OFFCURVE",
"291 781 OFFCURVE",
"272 781 CURVE SMOOTH",
"223 781 OFFCURVE",
"122 703 OFFCURVE",
"122 571 CURVE SMOOTH",
"122 518 OFFCURVE",
"137 463 OFFCURVE",
"159 413 CURVE SMOOTH",
"200 320 LINE SMOOTH",
"215 287 OFFCURVE",
"229 249 OFFCURVE",
"229 197 CURVE SMOOTH",
"229 74 OFFCURVE",
"133 63 OFFCURVE",
"133 27 CURVE SMOOTH",
"133 -2 OFFCURVE",
"155 -15 OFFCURVE",
"173 -15 CURVE SMOOTH"
);
},
{
closed = 1;
nodes = (
"433 -15 OFFCURVE",
"534 63 OFFCURVE",
"534 195 CURVE SMOOTH",
"534 249 OFFCURVE",
"519 304 OFFCURVE",
"497 354 CURVE SMOOTH",
"456 446 LINE SMOOTH",
"441 479 OFFCURVE",
"427 518 OFFCURVE",
"427 570 CURVE SMOOTH",
"427 693 OFFCURVE",
"522 704 OFFCURVE",
"522 739 CURVE SMOOTH",
"522 769 OFFCURVE",
"501 781 OFFCURVE",
"482 781 CURVE SMOOTH",
"433 781 OFFCURVE",
"332 703 OFFCURVE",
"332 571 CURVE SMOOTH",
"332 518 OFFCURVE",
"347 463 OFFCURVE",
"369 413 CURVE SMOOTH",
"410 320 LINE SMOOTH",
"425 287 OFFCURVE",
"439 249 OFFCURVE",
"439 197 CURVE SMOOTH",
"439 74 OFFCURVE",
"343 63 OFFCURVE",
"343 27 CURVE SMOOTH",
"343 -2 OFFCURVE",
"365 -15 OFFCURVE",
"383 -15 CURVE SMOOTH"
);
}
);
width = 851;
}
);
unicode = 1BFE;
},
{
glyphname = uni1BFF;
lastChange = "2017-09-05 13:40:55 +0000";
layers = (
{
layerId = UUID0;
paths = (
{
closed = 1;
nodes = (
"213 -15 OFFCURVE",
"249 -5 OFFCURVE",
"283 7 CURVE SMOOTH",
"441 64 OFFCURVE",
"527 208 OFFCURVE",
"527 382 CURVE SMOOTH",
"527 552 OFFCURVE",
"453 695 OFFCURVE",
"282 760 CURVE SMOOTH",
"249 773 OFFCURVE",
"206 781 OFFCURVE",
"175 781 CURVE SMOOTH",
"145 781 OFFCURVE",
"132 756 OFFCURVE",
"132 737 CURVE SMOOTH",
"132 711 OFFCURVE",
"153 699 OFFCURVE",
"175 695 CURVE SMOOTH",
"213 688 OFFCURVE",
"241 681 OFFCURVE",
"259 675 CURVE SMOOTH",
"402 628 OFFCURVE",
"439 490 OFFCURVE",
"439 382 CURVE SMOOTH",
"439 271 OFFCURVE",
"403 140 OFFCURVE",
"255 90 CURVE SMOOTH",
"223 79 OFFCURVE",
"185 73 OFFCURVE",
"169 70 CURVE SMOOTH",
"154 67 OFFCURVE",
"132 57 OFFCURVE",
"132 31 CURVE SMOOTH",
"132 12 OFFCURVE",
"145 -15 OFFCURVE",
"175 -15 CURVE SMOOTH"
);
}
);
width = 688;
}
);
unicode = 1BFF;
},
{
glyphname = uni25CC;
lastChange = "2017-09-05 13:40:55 +0000";
layers = (
{
layerId = UUID0;
paths = (
{
closed = 1;
nodes = (
"480 466 OFFCURVE",
"472 475 OFFCURVE",
"455 475 CURVE SMOOTH",
"437 475 OFFCURVE",
"428 466 OFFCURVE",
"428 448 CURVE SMOOTH",
"428 431 OFFCURVE",
"437 422 OFFCURVE",
"455 422 CURVE SMOOTH",
"472 422 OFFCURVE",
"480 431 OFFCURVE",
"480 448 CURVE SMOOTH"
);
},
{
closed = 1;
nodes = (
"408 514 OFFCURVE",
"400 523 OFFCURVE",
"383 523 CURVE SMOOTH",
"364 523 OFFCURVE",
"355 514 OFFCURVE",
"355 496 CURVE SMOOTH",
"355 479 OFFCURVE",
"364 470 OFFCURVE",
"383 470 CURVE SMOOTH",
"400 470 OFFCURVE",
"408 479 OFFCURVE",
"408 496 CURVE SMOOTH"
);
},
{
closed = 1;
nodes = (
"529 393 OFFCURVE",
"520 402 OFFCURVE",
"503 402 CURVE SMOOTH",
"485 402 OFFCURVE",
"476 393 OFFCURVE",
"476 376 CURVE SMOOTH",
"476 358 OFFCURVE",
"485 349 OFFCURVE",
"502 349 CURVE SMOOTH",
"520 349 OFFCURVE",
"529 358 OFFCURVE",
"529 376 CURVE SMOOTH"
);
},
{
closed = 1;
nodes = (
"546 308 OFFCURVE",
"538 317 OFFCURVE",
"521 317 CURVE SMOOTH",
"503 317 OFFCURVE",
"494 308 OFFCURVE",
"494 291 CURVE SMOOTH",
"494 274 OFFCURVE",
"503 265 OFFCURVE",
"521 265 CURVE SMOOTH",
"538 265 OFFCURVE",
"546 274 OFFCURVE",
"546 291 CURVE SMOOTH"
);
},
{
closed = 1;
nodes = (
"323 531 OFFCURVE",
"314 540 OFFCURVE",
"297 540 CURVE SMOOTH",
"280 540 OFFCURVE",
"271 531 OFFCURVE",
"271 514 CURVE SMOOTH",
"271 496 OFFCURVE",
"280 487 OFFCURVE",
"297 487 CURVE SMOOTH",
"314 487 OFFCURVE",
"323 496 OFFCURVE",
"323 514 CURVE SMOOTH"
);
},
{
closed = 1;
nodes = (
"239 514 OFFCURVE",
"230 523 OFFCURVE",
"212 523 CURVE SMOOTH",
"195 523 OFFCURVE",
"186 514 OFFCURVE",
"186 496 CURVE SMOOTH",
"186 479 OFFCURVE",
"195 470 OFFCURVE",
"212 470 CURVE SMOOTH",
"230 470 OFFCURVE",
"239 479 OFFCURVE",
"239 496 CURVE SMOOTH"
);
},
{
closed = 1;
nodes = (
"529 224 OFFCURVE",
"520 233 OFFCURVE",
"502 233 CURVE SMOOTH",
"485 233 OFFCURVE",
"476 224 OFFCURVE",
"476 206 CURVE SMOOTH",
"476 189 OFFCURVE",
"485 180 OFFCURVE",
"502 180 CURVE SMOOTH",
"520 180 OFFCURVE",
"529 189 OFFCURVE",
"529 206 CURVE SMOOTH"
);
},
{
closed = 1;
nodes = (
"167 466 OFFCURVE",
"158 475 OFFCURVE",
"140 475 CURVE SMOOTH",
"123 475 OFFCURVE",
"114 466 OFFCURVE",
"114 447 CURVE SMOOTH",
"114 430 OFFCURVE",
"123 422 OFFCURVE",
"140 422 CURVE SMOOTH",
"158 422 OFFCURVE",
"167 431 OFFCURVE",
"167 448 CURVE SMOOTH"
);
},
{
closed = 1;
nodes = (
"480 151 OFFCURVE",
"472 160 OFFCURVE",
"455 160 CURVE SMOOTH",
"437 160 OFFCURVE",
"428 151 OFFCURVE",
"428 133 CURVE SMOOTH",
"428 116 OFFCURVE",
"437 107 OFFCURVE",
"455 107 CURVE SMOOTH",
"472 107 OFFCURVE",
"480 116 OFFCURVE",
"480 133 CURVE SMOOTH"
);
},
{
closed = 1;
nodes = (
"408 103 OFFCURVE",
"400 112 OFFCURVE",
"383 112 CURVE SMOOTH",
"364 112 OFFCURVE",
"355 103 OFFCURVE",
"355 85 CURVE SMOOTH",
"355 68 OFFCURVE",
"364 60 OFFCURVE",
"383 60 CURVE SMOOTH",
"400 60 OFFCURVE",
"408 68 OFFCURVE",
"408 85 CURVE SMOOTH"
);
},
{
closed = 1;
nodes = (
"118 393 OFFCURVE",
"109 402 OFFCURVE",
"92 402 CURVE SMOOTH",
"74 402 OFFCURVE",
"65 393 OFFCURVE",
"65 376 CURVE SMOOTH",
"65 358 OFFCURVE",
"74 349 OFFCURVE",
"93 349 CURVE SMOOTH",
"110 349 OFFCURVE",
"118 358 OFFCURVE",
"118 376 CURVE SMOOTH"
);
},
{
closed = 1;
nodes = (
"101 308 OFFCURVE",
"92 317 OFFCURVE",
"75 317 CURVE SMOOTH",
"57 317 OFFCURVE",
"48 308 OFFCURVE",
"48 291 CURVE SMOOTH",
"48 274 OFFCURVE",
"57 265 OFFCURVE",
"75 265 CURVE SMOOTH",
"92 265 OFFCURVE",
"101 274 OFFCURVE",
"101 291 CURVE SMOOTH"
);
},
{
closed = 1;
nodes = (
"323 86 OFFCURVE",
"314 95 OFFCURVE",
"297 95 CURVE SMOOTH",
"280 95 OFFCURVE",
"271 86 OFFCURVE",
"271 69 CURVE SMOOTH",
"271 51 OFFCURVE",
"280 42 OFFCURVE",
"297 42 CURVE SMOOTH",
"314 42 OFFCURVE",
"323 51 OFFCURVE",
"323 69 CURVE SMOOTH"
);
},
{
closed = 1;
nodes = (
"118 224 OFFCURVE",
"109 233 OFFCURVE",
"92 233 CURVE SMOOTH",
"74 233 OFFCURVE",
"65 224 OFFCURVE",
"65 206 CURVE SMOOTH",
"65 189 OFFCURVE",
"74 180 OFFCURVE",
"92 180 CURVE SMOOTH",
"109 180 OFFCURVE",
"118 189 OFFCURVE",
"118 206 CURVE SMOOTH"
);
},
{
closed = 1;
nodes = (
"239 104 OFFCURVE",
"230 112 OFFCURVE",
"212 112 CURVE SMOOTH",
"195 112 OFFCURVE",
"186 103 OFFCURVE",
"186 85 CURVE SMOOTH",
"186 68 OFFCURVE",
"195 60 OFFCURVE",
"212 60 CURVE SMOOTH",
"230 60 OFFCURVE",
"239 69 OFFCURVE",
"239 87 CURVE SMOOTH"
);
},
{
closed = 1;
nodes = (
"167 151 OFFCURVE",
"158 160 OFFCURVE",
"140 160 CURVE SMOOTH",
"123 160 OFFCURVE",
"114 151 OFFCURVE",
"114 133 CURVE SMOOTH",
"114 116 OFFCURVE",
"123 107 OFFCURVE",
"140 107 CURVE SMOOTH",
"158 107 OFFCURVE",
"167 116 OFFCURVE",
"167 133 CURVE SMOOTH"
);
}
